<svg width="30" height="30" viewBox="0 0 110 111" fill="none" xmlns="http://www.w3.org/2000/svg">
<path d="M58.0817 59.241L71.2971 45.9054L64.0045 38.5482L50.789 51.8821C49.1774 50.2558 46.9916 49.3422 44.7124 49.3422C42.4332 49.3422 40.2474 50.2558 38.6357 51.8821L2.1759 88.6734L21.6218 108.296L58.0817 71.5048C59.6933 69.8785 60.5987 67.6728 60.5987 65.3729C60.5987 63.073 59.6933 60.8673 58.0817 59.241Z" fill="#7CC9D1"/>
<path d="M52.0048 77.6364L32.5593 58.0142L16.7599 73.9572L36.2053 93.5794L52.0048 77.6364Z" fill="#FFB640"/>
<path d="M98.8281 76.479L96.5835 71.8882L91.563 71.1528L95.1964 67.5782L94.3388 62.5347L98.8281 64.916L103.318 62.5347L102.46 67.5782L106.093 71.1528L101.073 71.8882L98.8281 76.479Z" fill="#6C60E2"/>
<g opacity="0.1">
<path d="M42.9687 53.2262C43.8003 52.3884 44.7944 51.7329 45.8887 51.3008C46.9829 50.8686 48.1539 50.6692 49.3281 50.7149C47.6796 49.6516 45.721 49.1878 43.7759 49.4C41.8308 49.6122 40.0157 50.4878 38.6306 51.8821L2.1759 88.6734L5.00497 91.5299L42.9687 53.2262Z" fill="black"/>
</g>
<path d="M93.4244 3.73236L98.3332 9.06383L105.468 8.0076L101.96 14.3658L105.16 20.8871L98.0839 19.484L92.9277 24.5709L92.0632 17.3455L85.6746 13.9686L92.2161 10.9075L93.4244 3.73236Z" fill="#E1E55E"/>
<path d="M37.0304 5.38352L42.0251 7.09188L46.2515 3.9093L46.1827 9.23036L50.4882 12.3037L45.454 13.882L43.8882 18.9637L40.8426 14.6191L35.5695 14.6867L38.7234 10.4219L37.0304 5.38352Z" fill="#FFE36C"/>
<path d="M72.5106 44.6792L65.2197 37.322C64.8973 36.9969 64.4603 36.8142 64.0045 36.8142C63.5488 36.8142 63.1117 36.9969 62.7894 37.322L50.6876 49.532C48.6998 48.1109 46.2784 47.4443 43.8508 47.65C41.4232 47.8556 39.1458 48.9202 37.4206 50.6559L0.960746 87.4472C0.63853 87.7724 0.45752 88.2135 0.45752 88.6734C0.45752 89.1333 0.63853 89.5743 0.960746 89.8996L20.4067 109.522C20.729 109.847 21.1661 110.03 21.6218 110.03C22.0776 110.03 22.5147 109.847 22.837 109.522L37.4189 94.8061L53.2176 78.8638L59.2968 72.731C61.0205 70.9923 62.0782 68.6938 62.2824 66.2432C62.4866 63.7925 61.8241 61.3481 60.4123 59.3434L72.5106 47.1316C72.8328 46.8064 73.0138 46.3653 73.0138 45.9054C73.0138 45.4455 72.8328 45.0045 72.5106 44.6792ZM36.2054 91.1275L19.1898 73.9572L32.5583 60.4655L49.5739 77.6358L36.2054 91.1275ZM21.6218 105.844L4.60622 88.6734L16.7595 76.4096L33.7751 93.5799L21.6218 105.844ZM56.8665 58.0148C56.5443 58.3401 56.3633 58.7812 56.3633 59.241C56.3633 59.7009 56.5443 60.142 56.8665 60.4672C57.505 61.1115 58.0114 61.8763 58.3569 62.718C58.7025 63.5597 58.8803 64.4619 58.8803 65.3729C58.8803 66.284 58.7025 67.1862 58.3569 68.0279C58.0114 68.8696 57.505 69.6344 56.8665 70.2786L52.0042 75.1834L34.9886 58.0131L39.8509 53.1066C41.1416 51.808 42.8898 51.0788 44.7124 51.0788C46.535 51.0788 48.2832 51.808 49.5739 53.1066C49.8962 53.4317 50.3333 53.6144 50.789 53.6144C51.2448 53.6144 51.6819 53.4317 52.0042 53.1066L64.0045 40.9989L68.8651 45.9037L56.8665 58.0148Z" fill="black"/>
<path d="M74.2981 44.6116L71.8678 42.1592L73.083 40.933C77.9179 36.0542 84.4753 33.3134 91.3129 33.3134C98.1504 33.3134 104.708 36.0542 109.543 40.933L107.112 43.3854C105.038 41.2917 102.574 39.6308 99.8636 38.4977C97.1527 37.3646 94.2471 36.7814 91.3129 36.7814C88.3786 36.7814 85.4731 37.3646 82.7622 38.4977C80.0513 39.6308 77.5881 41.2917 75.5133 43.3854L74.2981 44.6116Z" fill="black"/>
<path d="M70.8606 40.7214L68.4303 38.269C72.7423 33.9082 75.963 28.5738 77.8259 22.7074C79.6889 16.841 80.1404 10.6112 79.1433 4.53366L82.5344 3.96478C83.621 10.5867 83.1289 17.3746 81.0988 23.7665C79.0688 30.1583 75.5592 35.9704 70.8606 40.7214Z" fill="black"/>
<path d="M67.4007 34.9026L64.1815 33.6885C66.0439 28.7041 66.0068 23.1996 64.0775 18.2412C62.1482 13.2827 58.464 9.22326 53.7383 6.84905L52.8687 6.41719L54.4052 3.31439L55.2749 3.75319C60.7602 6.50791 65.0371 11.2189 67.2773 16.9735C69.5175 22.7282 69.5614 29.1171 67.4007 34.9026Z" fill="black"/>
<path d="M95.9388 59.7839C95.0162 56.3782 92.9471 53.4029 90.087 51.3692C87.2269 49.3354 83.7543 48.37 80.2656 48.6388L78.2821 48.7932L78.0192 45.3348L80.0026 45.1805C84.2879 44.8503 88.5533 46.0363 92.0662 48.5347C95.5791 51.0332 98.1201 54.6881 99.2526 58.8716L95.9388 59.7839Z" fill="black"/>
<path d="M43.8882 20.6998C43.6131 20.6999 43.3419 20.6333 43.0975 20.5056C42.8532 20.3779 42.6428 20.1929 42.484 19.9662L39.9609 16.3656L35.5918 16.4228C35.2706 16.4274 34.9545 16.341 34.6795 16.1735C34.4044 16.006 34.1814 15.764 34.0357 15.4751C33.8901 15.1861 33.8275 14.8618 33.8553 14.5388C33.8831 14.2158 34 13.9072 34.1928 13.6478L36.807 10.1132L35.4062 5.94027C35.3029 5.63374 35.2866 5.30415 35.3594 4.98879C35.4321 4.67344 35.5908 4.38491 35.8176 4.15588C36.0444 3.92685 36.3302 3.76644 36.6426 3.69283C36.9551 3.61922 37.2817 3.63533 37.5856 3.73935L41.7243 5.15633L45.2271 2.51835C45.4842 2.32371 45.7903 2.20572 46.1105 2.17778C46.4307 2.14983 46.7523 2.21306 47.0387 2.36027C47.3251 2.50748 47.5648 2.73278 47.7307 3.01058C47.8966 3.28839 47.982 3.60756 47.9771 3.93186L47.9135 8.34238L51.4817 10.8867C51.7438 11.0735 51.9489 11.3307 52.0736 11.6291C52.1984 11.9275 52.2379 12.2551 52.1876 12.575C52.1373 12.8948 51.9993 13.1941 51.7892 13.4389C51.5791 13.6837 51.3053 13.8642 50.9987 13.96L46.8256 15.2625L45.5296 19.4736C45.4343 19.783 45.2549 20.0593 45.0119 20.2712C44.7689 20.483 44.4719 20.6219 44.1546 20.6721C44.0668 20.6889 43.9776 20.6982 43.8882 20.6998ZM40.8426 12.8847C41.1178 12.8846 41.3889 12.9512 41.6333 13.0789C41.8776 13.2066 42.088 13.3916 42.2468 13.6183L43.2781 15.0926L43.8092 13.3582C43.8919 13.0897 44.0381 12.8456 44.2351 12.6468C44.4321 12.4479 44.674 12.3005 44.9401 12.217L46.6588 11.6811L45.1979 10.6404C44.9703 10.4782 44.7852 10.2626 44.6585 10.0121C44.5319 9.7616 44.4675 9.48381 44.4709 9.20263L44.4949 7.39541L43.0598 8.47593C42.8362 8.64415 42.5754 8.75496 42.2999 8.79877C42.0245 8.84258 41.7425 8.81809 41.4785 8.72741L39.777 8.1516L40.3528 9.86343C40.4421 10.1297 40.4659 10.414 40.4222 10.6916C40.3785 10.9693 40.2685 11.2321 40.1018 11.4573L39.031 12.9055L40.8203 12.883L40.8426 12.8847Z" fill="black"/>
<path d="M98.8281 78.2203C98.5063 78.2213 98.1907 78.1311 97.9173 77.96C97.6438 77.7889 97.4234 77.5438 97.2812 77.2525L95.4421 73.4733L91.3171 72.868C91 72.8213 90.7022 72.686 90.4573 72.4774C90.2124 72.2689 90.0301 71.9954 89.931 71.6878C89.832 71.3803 89.8202 71.0509 89.8968 70.7369C89.9735 70.4229 90.1357 70.1368 90.365 69.9109L93.3504 66.9729L92.6457 62.8277C92.5916 62.5088 92.6269 62.1809 92.7478 61.8812C92.8687 61.5814 93.0702 61.3218 93.3297 61.1316C93.5891 60.9414 93.8961 60.8283 94.216 60.805C94.5359 60.7817 94.8558 60.8491 95.1396 60.9997L98.8281 62.9578L102.518 61.0014C102.802 60.85 103.122 60.7819 103.442 60.8047C103.763 60.8274 104.07 60.9403 104.33 61.1304C104.59 61.3205 104.792 61.5802 104.913 61.8802C105.034 62.1802 105.07 62.5084 105.016 62.8277L104.311 66.9729L107.296 69.9109C107.526 70.1368 107.688 70.4229 107.764 70.7369C107.841 71.0509 107.829 71.3803 107.73 71.6878C107.631 71.9954 107.449 72.2689 107.204 72.4774C106.959 72.686 106.661 72.8213 106.344 72.868L102.219 73.4733L100.375 77.2456C100.234 77.5381 100.014 77.7847 99.7402 77.9571C99.4667 78.1294 99.1506 78.2206 98.8281 78.2203ZM95.2565 69.9473L96.8309 70.1798C97.1067 70.2202 97.3686 70.3276 97.594 70.4929C97.8195 70.6582 98.0018 70.8763 98.1251 71.1285L98.8281 72.5663L99.531 71.1285C99.6544 70.8763 99.8366 70.6582 100.062 70.4929C100.288 70.3276 100.549 70.2202 100.825 70.1798L102.4 69.9473L101.262 68.8287C101.062 68.6327 100.912 68.3905 100.826 68.1231C100.739 67.8557 100.718 67.5711 100.765 67.2938L101.035 65.712L99.6273 66.4561C99.3813 66.5884 99.1068 66.6577 98.8281 66.6577C98.5493 66.6577 98.2748 66.5884 98.0289 66.4561L96.6212 65.712L96.891 67.2938C96.9378 67.5711 96.917 67.8557 96.8305 68.1231C96.744 68.3905 96.5943 68.6327 96.3943 68.8287L95.2565 69.9473Z" fill="black"/>
<path d="M92.9259 26.3053C92.7315 26.3049 92.5386 26.2714 92.3553 26.2064C92.0531 26.0988 91.7868 25.9082 91.5864 25.6559C91.3859 25.4037 91.2594 25.1 91.2209 24.779L90.4647 18.459L84.877 15.5105C84.5929 15.3604 84.356 15.133 84.1933 14.8542C84.0305 14.5753 83.9484 14.256 83.9561 13.9325C83.9638 13.6089 84.061 13.294 84.2368 13.0233C84.4126 12.7527 84.66 12.537 84.9509 12.4008L90.6726 9.71251L91.7314 3.43581C91.7855 3.1171 91.9268 2.82 92.1394 2.57806C92.352 2.33613 92.6274 2.15898 92.9345 2.06663C93.2416 1.97427 93.5682 1.97039 93.8774 2.05542C94.1865 2.14044 94.466 2.31099 94.6842 2.54781L98.9811 7.21154L105.222 6.28712C105.539 6.24106 105.862 6.28519 106.155 6.41455C106.449 6.5439 106.7 6.75334 106.882 7.01927C107.064 7.28519 107.168 7.59704 107.184 7.91967C107.199 8.2423 107.125 8.56289 106.97 8.84532L103.9 14.4144L106.7 20.1188C106.842 20.4088 106.901 20.7332 106.871 21.0553C106.84 21.3774 106.72 21.6844 106.525 21.9415C106.331 22.1987 106.068 22.3957 105.769 22.5103C105.469 22.625 105.143 22.6527 104.828 22.5902L98.6407 21.3623L94.1307 25.8127C93.8085 26.1297 93.3759 26.3066 92.9259 26.3053ZM89.5572 14.0623L92.8606 15.8088C93.1072 15.9395 93.3187 16.1287 93.4768 16.3601C93.6349 16.5916 93.7348 16.8583 93.7681 17.1374L94.215 20.8732L96.8825 18.2439C97.0811 18.0463 97.3247 17.9007 97.592 17.82C97.8592 17.7393 98.142 17.7258 98.4156 17.7808L102.075 18.5075L100.42 15.1376C100.296 14.8856 100.234 14.6069 100.241 14.3256C100.248 14.0443 100.322 13.7688 100.457 13.5229L102.266 10.2328L98.5754 10.7809C98.2997 10.8204 98.0187 10.7923 97.756 10.699C97.4933 10.6057 97.2568 10.45 97.0664 10.245L94.5312 7.48731L93.9056 11.1971C93.8588 11.4742 93.7459 11.7356 93.5767 11.9589C93.4076 12.1821 93.1872 12.3606 92.9345 12.4788L89.5572 14.0623Z" fill="black"/>
<path d="M35.2344 83.25C39.506 83.25 42.9688 79.7557 42.9688 75.4453C42.9688 71.1349 39.506 67.6406 35.2344 67.6406C30.9628 67.6406 27.5 71.1349 27.5 75.4453C27.5 79.7557 30.9628 83.25 35.2344 83.25Z" fill="#E5F4F6"/>
</svg>
