<svg width="471" height="364" viewBox="0 0 471 364" fill="none" xmlns="http://www.w3.org/2000/svg">
<g filter="url(#filter0_d_3_9594)">
<path d="M156.092 205.847C157.357 193.891 154.416 146.65 153.25 135.487C153.111 134.165 149.302 136.839 147.915 137.177C139.585 139.317 130.941 139.962 122.385 139.084C113.333 138.083 104.951 134.632 96.3133 131.999C96.0281 131.929 95.7273 131.962 95.4634 132.091C95.1996 132.22 94.9894 132.437 94.8696 132.705C94.7498 132.974 94.728 133.275 94.8079 133.558C94.8878 133.841 95.0645 134.086 95.307 134.252C94.3842 144.612 93.4271 189.125 94.2928 194.066C94.3504 194.347 94.4972 194.601 94.7114 194.791C94.9256 194.981 95.1956 195.097 95.4809 195.121C95.7332 195.462 96.0749 195.727 96.4684 195.887C96.8618 196.047 97.2917 196.094 97.7106 196.025C99.4201 195.768 101.767 197.567 103.269 198.326C104.683 198.98 106.176 199.449 107.71 199.722C112.158 200.497 116.662 200.906 121.177 200.944C126.712 201.173 132.163 201.164 137.612 202.321C142.927 203.641 148.038 205.678 152.803 208.377C154.686 209.366 155.891 207.764 156.092 205.847Z" fill="#314B22"/>
<path d="M91.4295 127.194C90.1111 138.473 76.9794 146.85 60.615 147.313C58.9695 147.363 58.1645 147.118 58.0409 148.551C57.6442 153.037 57.371 156.11 58.9397 160.765C59.4304 162.233 65.2129 162.947 71.6816 161.232C79.5408 159.154 86.3696 153.613 91.4466 147.325C98.5054 138.586 98.5077 124.727 99.2419 124.912C96.435 124.067 93.8246 122.672 91.5633 120.807C91.4147 122.894 91.6674 125.166 91.4295 127.194Z" fill="#ED4442"/>
<path d="M149.908 129.918C147.181 125.264 141.499 125.132 136.913 126.543C131.181 128.428 125.061 128.806 119.142 127.639C113.412 126.48 107.956 124.24 103.064 121.038C99.7311 118.877 96.1509 113.508 92.8394 118.386C90.9023 121.248 91.3517 126.119 91.5735 129.384C92.063 136.485 96.9479 139.473 103.283 142.1C110.375 144.929 117.823 146.773 125.416 147.58C132.75 148.133 144.231 146.482 150.055 141.646C153.212 139.026 152.159 133.758 149.908 129.918Z" fill="#ED4442"/>
<g style="mix-blend-mode:multiply" opacity="0.3">
<path d="M149.908 129.918C149.555 129.313 149.124 128.755 148.629 128.259C147.198 128.02 145.781 127.705 144.383 127.316C142.878 126.902 141.456 126.403 140.061 125.874C138.994 126.004 137.94 126.227 136.913 126.543C131.181 128.428 125.061 128.806 119.142 127.639C113.412 126.48 107.956 124.24 103.064 121.038C99.7311 118.877 96.1509 113.508 92.8394 118.386C91.3014 120.661 91.2683 124.195 91.4295 127.194C102.492 138.924 120.413 142.407 135.634 143.106C140.703 143.335 142.73 140.363 147.704 139.481C149.032 139.247 150.421 139.007 151.818 138.731C152.474 136.033 151.49 132.621 149.908 129.918Z" fill="#60233F"/>
</g>
<path d="M182.77 87.5795C169.505 88.0896 168.412 83.3933 168.571 72.9133C168.78 59.1161 166.531 52.9721 161.404 42.9632C154.029 28.5645 143.363 25.6555 132.607 25.4028C127.402 25.2781 130.572 26.5611 122.973 31.3316C119.625 28.6951 115.664 26.9499 111.459 26.2592C97.1092 24.1312 84.165 27.5251 73.972 36.6226C65.8407 44.0079 58.4784 52.1978 51.9977 61.0668C51.3858 61.8856 47.0029 69.2027 46.932 69.2187C50.0747 69.5601 53.2508 69.0296 56.1119 67.6853C53.6088 75.7286 44.8773 78.8731 38.2793 80.9611C36.7688 81.4414 37.1358 82.2796 38.4372 82.5677C47.187 84.4693 57.5722 82.7678 58.0169 81.7901C48.039 94.8109 39.6961 96.9951 26.3951 98.0242C17.8339 98.692 11.396 95.4216 4.26416 90.5378C3.85246 90.8545 4.0069 91.1541 4.16123 91.6538C7.93699 103.6 12.0158 116.87 23.3443 126.869C35.3714 137.49 49.9646 139.296 64.5383 136.618C73.3133 135.004 87.3107 126.36 94.0229 119.99C101.322 113.068 103.941 103.767 106.439 94.285C111.117 104.071 121.089 107.725 131.774 107.194C137.712 106.779 143.539 105.383 149.02 103.061C152.247 101.766 157.275 99.8903 160.419 97.1369C160.616 97.2653 160.84 97.3449 161.073 97.3689C169.639 98.2277 178.683 97.2581 184.118 89.9226C184.253 89.6852 184.324 89.4166 184.323 89.1434C184.323 88.8702 184.251 88.6019 184.115 88.3651C183.978 88.1283 183.782 87.9313 183.547 87.7935C183.311 87.6557 183.043 87.5819 182.77 87.5795Z" fill="#EEE2C1"/>
<g style="mix-blend-mode:multiply" opacity="0.3">
<path d="M184.118 89.9226C184.253 89.6852 184.324 89.4166 184.323 89.1434C184.323 88.8702 184.251 88.6019 184.115 88.3651C183.978 88.1283 183.782 87.9313 183.547 87.7935C183.311 87.6557 183.043 87.5819 182.77 87.5795C169.505 88.0896 168.412 83.3933 168.571 72.9133C168.78 59.1161 166.531 52.9721 161.404 42.9632C154.029 28.5645 143.363 25.6555 132.607 25.4028C127.402 25.2781 130.572 26.5611 122.973 31.3316C119.625 28.6951 115.664 26.9499 111.459 26.2592C106.051 25.4181 100.542 25.4509 95.1446 26.3564C87.0723 30.9375 79.5687 36.4553 72.7896 42.7951C72.0372 43.5006 69.198 44.4406 69.956 44.6475C77.6437 56.4379 95.1698 59.0509 108.332 57.0944C121.017 55.2076 137.506 50.3615 146.294 40.292C147.735 41.7316 148.978 43.3557 149.992 45.1221C152.775 50.5719 154.777 57.5404 153.908 63.7871C149.084 60.4539 145.663 55.7222 141.562 51.5279C141.417 51.3858 141.238 51.2837 141.043 51.2315C140.847 51.1794 140.641 51.179 140.445 51.2304C140.249 51.2818 140.069 51.3832 139.924 51.5248C139.779 51.6663 139.673 51.8431 139.617 52.0378C137.175 63.7025 127.346 77.0013 118.035 82.1961C107.872 87.8643 95.4282 78.4534 86.9711 72.5474C86.4051 72.1528 84.3925 76.0602 84.3868 76.6834C84.2553 85.3715 84.6132 91.6058 94.9949 101.983C81.0455 123.396 63.3228 128.306 42.4428 126.966C24.2614 125.797 9.25664 106.938 4.44601 90.6589C4.38538 90.619 4.3247 90.5812 4.26416 90.5378C3.85246 90.8545 4.0069 91.1541 4.16123 91.6538C7.93699 103.6 12.0158 116.87 23.3443 126.869C35.3714 137.49 49.9646 139.296 64.5383 136.618C73.3133 135.004 86.9848 127.01 93.6993 120.641C101.003 113.714 103.941 103.767 106.439 94.285C111.117 104.071 121.089 107.725 131.774 107.194C137.712 106.779 143.539 105.383 149.02 103.061C152.247 101.766 157.275 99.8903 160.419 97.1369C160.616 97.2653 160.84 97.3449 161.073 97.3689C169.639 98.2277 178.683 97.2581 184.118 89.9226Z" fill="#BA9F81"/>
</g>
<g style="mix-blend-mode:multiply" opacity="0.5">
<path d="M97.2429 49.1494C94.233 49.3552 91.2095 49.2272 88.2277 48.7676C85.1769 48.2803 80.8386 47.6915 78.308 45.9157C77.3933 45.2753 76.7896 46.4634 77.1783 47.3759C80.9471 56.2653 107.633 55.3082 119.947 51.0797C131.311 47.1712 147.066 40.0679 146.303 27.9573C143.869 26.9581 141.321 26.2656 138.716 25.8956C138.63 26.5405 138.531 27.1808 138.39 27.8166C137.614 30.7502 136.019 33.4026 133.792 35.4642C128.729 40.4866 122.498 44.172 115.658 46.1889C109.663 47.9247 103.479 48.919 97.2429 49.1494Z" fill="#BA9F81"/>
</g>
<g style="mix-blend-mode:multiply" opacity="0.5">
<path d="M184.118 89.9226C184.247 89.6982 184.319 89.4449 184.325 89.1859C184.332 88.9269 184.274 88.6703 184.156 88.4396C184.038 88.2088 183.864 88.0113 183.651 87.8649C183.437 87.7184 183.19 87.6278 182.932 87.6013C181.918 88.4973 180.819 89.2923 179.651 89.9751C172.334 94.1707 169.159 85.8689 166.236 81.1509C166.147 81.0052 166.013 80.8923 165.854 80.8292C165.695 80.7661 165.52 80.7562 165.355 80.8009C165.19 80.8455 165.044 80.9424 164.938 81.0771C164.833 81.2117 164.774 81.3768 164.77 81.5477C164.791 82.0854 164.845 82.6212 164.933 83.152C164.856 83.2328 164.799 83.3298 164.766 83.4356C163.918 86.4361 161.933 93.0317 162.92 97.5233C170.918 98.0539 179.075 96.7321 184.118 89.9226Z" fill="#BA9F81"/>
</g>
<path d="M165.478 80.6466C156.045 78.4431 146.79 70.6149 140.547 61.0942C139.758 59.8924 139.383 60.1543 139.218 61.4671C138.47 67.5538 124.126 79.86 124.403 76.2797C124.601 72.7977 124.403 69.3045 123.813 65.8672C123.68 65.1193 123.397 64.8517 122.914 65.4394C117.942 71.3347 111.304 75.5895 103.871 77.6461C97.8742 73.7949 90.7811 71.7698 84.0529 72.9762C83.8194 73.0394 83.6134 73.1781 83.4669 73.3707C83.3205 73.5632 83.2419 73.7988 83.2433 74.0407C83.9157 84.0142 91.0007 94.5023 100.801 97.2123C102.275 104.341 100.753 112.774 95.7782 117.866C95.3345 118.323 95.6958 118.384 96.1395 118.849C110.29 133.787 131.582 140.234 147.554 132.482C164.882 124.068 167.342 101.339 166.421 82.2201C166.374 81.3316 166.322 80.8421 165.478 80.6466Z" fill="#FFC590"/>
<g style="mix-blend-mode:multiply" opacity="0.3">
<path d="M155.989 126.152C165.702 115.442 167.166 97.6548 166.421 82.2201C166.375 81.3316 166.322 80.8421 165.478 80.6466C156.045 78.4431 146.79 70.6149 140.547 61.0942C139.758 59.8924 139.383 60.1543 139.218 61.4671C138.587 66.5841 128.356 76.0922 125.273 76.8674C125.294 76.939 125.328 77.0058 125.374 77.0639C125.421 77.1221 125.478 77.1706 125.543 77.2065C125.608 77.2424 125.68 77.2651 125.754 77.2733C125.828 77.2814 125.903 77.2748 125.974 77.254C132.267 75.3466 137.872 71.6574 142.112 66.6321C142.806 67.9591 143.595 69.2336 144.474 70.4456C148.563 75.9916 155.348 79.3888 161.277 82.5277C164.592 84.2795 163.125 101.339 159.882 114.964C159.031 118.834 157.725 122.589 155.989 126.152Z" fill="#60233F"/>
</g>
<g style="mix-blend-mode:multiply" opacity="0.1">
<path d="M138.559 135.298C134.439 134.304 130.41 132.963 126.516 131.288C120.243 128.887 113.573 126.003 108.471 121.552C103.175 116.932 103.443 111.565 103.359 105.236C103.33 102.806 103.33 98.8268 100.862 97.5611C102.222 104.613 100.676 112.857 95.7782 117.866C95.3346 118.323 95.6958 118.384 96.1396 118.849C107.762 131.123 124.209 137.657 138.559 135.298Z" fill="#60233F"/>
</g>
<g style="mix-blend-mode:multiply" opacity="0.2">
<path d="M124.364 70.4789C124.259 68.9332 124.075 67.394 123.813 65.8672C123.68 65.1193 123.397 64.8517 122.914 65.4394C118.48 70.7013 112.703 74.6626 106.196 76.9017C112.328 76.4444 117.411 75.2528 122.715 71.6829C123.25 71.325 123.808 70.9122 124.364 70.4789Z" fill="#60233F"/>
</g>
<path d="M125.566 175.301C129.636 184.662 144.365 187.637 153.151 187.627C162.341 187.625 172.855 187.874 181.637 179.031C181.909 165.428 183.79 149.433 183.163 136.372C183.083 134.709 180.578 133.172 179.259 133.915C172.762 137.541 163.475 136.184 156.356 135.737C146.641 135.126 124.053 135.034 124.042 136.375C124.011 141.908 124.149 147.443 124.161 152.981C124.174 159.722 124.437 173.276 125.21 174.388C125.361 174.679 125.48 174.985 125.566 175.301Z" fill="#DB282D"/>
<g style="mix-blend-mode:multiply" opacity="0.2">
<path d="M183.26 139.332C180.03 143.434 168.792 146.34 167.863 146.097C156.503 143.09 156.124 144.36 155.017 166.167C154.865 169.113 154.737 174.799 151.888 176.345C148.425 178.226 142.655 176.661 139.042 175.806C133.915 174.662 129.027 172.633 124.598 169.809C124.593 171.356 124.799 172.897 125.21 174.388C125.348 174.631 125.451 174.892 125.516 175.163C129.219 177.7 133.358 179.534 137.726 180.574C143.825 182.288 150.137 183.392 156.44 182.612C156.331 182.983 156.31 183.374 156.379 183.754C156.448 184.134 156.605 184.493 156.838 184.801C157.07 185.11 157.372 185.36 157.718 185.531C158.064 185.702 158.446 185.79 158.832 185.788C160.266 186.032 161.658 186.477 162.967 187.111C163.14 187.169 163.311 187.226 163.486 187.279C169.713 186.612 176.029 184.676 181.637 179.031C181.887 166.438 183.512 151.8 183.26 139.332Z" fill="#60233F"/>
</g>
<g style="mix-blend-mode:overlay">
<path d="M132.562 162.212C132.455 161.762 132.232 161.347 131.914 161.01C131.597 160.673 131.196 160.426 130.753 160.292C130.201 160.14 129.612 160.213 129.114 160.495C128.616 160.778 128.25 161.246 128.098 161.797C128.128 161.678 128.157 161.601 128.18 161.535C128.163 161.566 128.142 161.601 128.124 161.634C127.922 161.98 127.809 162.37 127.795 162.77C127.78 163.17 127.865 163.568 128.042 163.927C128.218 164.287 128.481 164.597 128.807 164.83C129.132 165.063 129.51 165.213 129.907 165.264C130.304 165.316 130.708 165.269 131.082 165.127C131.457 164.985 131.79 164.752 132.053 164.45C132.316 164.148 132.5 163.786 132.588 163.395C132.677 163.005 132.668 162.598 132.562 162.212Z" fill="#FBF8F0"/>
</g>
<g style="mix-blend-mode:overlay">
<path d="M141.542 170.867C141.532 170.821 141.524 170.776 141.516 170.73C141.045 168.319 137.092 168.293 136.643 170.73C136.632 170.776 136.627 170.821 136.614 170.867C136.451 171.535 136.544 172.239 136.875 172.841C137.102 173.224 137.425 173.542 137.811 173.763C138.197 173.984 138.634 174.101 139.08 174.103C139.414 174.104 139.746 174.038 140.055 173.91C140.364 173.782 140.645 173.594 140.882 173.357C141.194 173.032 141.419 172.633 141.534 172.198C141.65 171.762 141.652 171.304 141.542 170.867Z" fill="#FBF8F0"/>
</g>
<g style="mix-blend-mode:overlay">
<path d="M149.3 164.846C148.862 164.845 148.435 164.974 148.07 165.217C147.706 165.459 147.422 165.804 147.254 166.208C147.086 166.612 147.041 167.057 147.126 167.486C147.21 167.915 147.42 168.31 147.729 168.62C148.038 168.93 148.431 169.141 148.86 169.228C149.289 169.314 149.734 169.271 150.139 169.105C150.543 168.938 150.889 168.655 151.133 168.292C151.377 167.929 151.508 167.502 151.509 167.064C151.505 166.479 151.271 165.918 150.858 165.504C150.445 165.089 149.885 164.853 149.3 164.846Z" fill="#FBF8F0"/>
</g>
<g style="mix-blend-mode:overlay">
<path d="M170.809 164.513C170.715 164.175 170.545 163.863 170.312 163.601C170.079 163.339 169.789 163.134 169.464 163.002C169.139 162.87 168.788 162.814 168.438 162.839C168.089 162.863 167.749 162.968 167.446 163.145C167.143 163.321 166.884 163.565 166.69 163.857C166.496 164.149 166.372 164.482 166.327 164.83C166.282 165.178 166.317 165.531 166.43 165.863C166.543 166.195 166.73 166.497 166.978 166.745V166.738C167.174 166.991 167.425 167.195 167.713 167.335C168.001 167.474 168.318 167.544 168.637 167.54C169.127 167.536 169.602 167.374 169.991 167.077C170.38 166.78 170.663 166.365 170.796 165.894C170.931 165.445 170.936 164.965 170.809 164.513Z" fill="#FBF8F0"/>
</g>
<g style="mix-blend-mode:multiply" opacity="0.3">
<path d="M183.211 147.118C181.273 149.458 179.176 151.663 176.936 153.715C171.857 158.098 163.248 158.472 156.803 159.032C144.525 160.102 132.243 155.757 124.103 146.658C124.124 148.114 124.138 149.575 124.149 151.029C130.426 159.587 143.143 162.374 153.519 162.985C161.13 163.571 168.758 162.112 175.615 158.758C178.293 157.305 180.762 155.497 182.956 153.384C183.065 151.274 183.153 149.177 183.211 147.118Z" fill="#60233F"/>
</g>
<path d="M179.259 133.915C172.762 137.541 163.475 136.184 156.356 135.737C146.641 135.126 124.053 135.034 124.042 136.372C124.03 138.343 124.053 143.448 123.952 148.214C127.115 154.057 138.542 159.548 153.605 159.548C168.164 159.548 179.913 154.781 183.323 148.699C183.433 144.882 183.332 139.872 183.163 136.372C183.083 134.709 180.578 133.172 179.259 133.915Z" fill="#FFC5A9"/>
<g style="mix-blend-mode:multiply" opacity="0.2">
<path d="M183.323 148.699C183.433 144.882 183.332 139.872 183.163 136.372C183.001 135.566 182.539 134.852 181.871 134.374C181.203 133.895 180.378 133.688 179.563 133.793C176.244 137.828 171.304 140.091 166.229 142.13C162.544 143.672 158.609 144.528 154.616 144.655C150.711 144.774 147.08 143.61 143.173 144.355C143.084 144.372 142.998 144.408 142.923 144.459C142.847 144.51 142.783 144.576 142.733 144.653C142.684 144.73 142.65 144.816 142.635 144.906C142.62 144.996 142.623 145.088 142.644 145.177C136.518 143.456 130.095 142.324 126.947 136.658C126.183 135.289 124.245 136.487 124.879 137.865C128.759 146.318 139.963 148.104 147.792 149.505C151.772 150.222 152.974 150.932 154.215 155.33C154.473 156.257 154.815 158.639 155.053 159.521C168.936 159.214 180.03 154.581 183.323 148.699Z" fill="#60233F"/>
</g>
<path d="M183.163 136.372C183.163 141.929 169.928 146.436 153.605 146.436C137.28 146.436 124.042 141.929 124.042 136.372C124.042 130.817 137.28 126.309 153.605 126.309C169.928 126.309 183.163 130.817 183.163 136.372Z" fill="#EE6D53"/>
<g style="mix-blend-mode:overlay" opacity="0.5">
<path d="M147.416 138.91C145.311 138.094 143.42 136.81 141.885 135.155C140.35 133.5 139.212 131.518 138.556 129.358C133.491 130.366 124.283 132.851 128.857 138.76C132.602 143.586 149.5 144.565 156.55 144.127C160.444 143.888 161.142 142.365 160.036 138.867C155.986 140.477 151.477 140.492 147.416 138.91Z" fill="#F7F2E7"/>
</g>
<path d="M171.605 181.274C168.624 180.018 164.686 181.599 162.648 181.585C152.869 181.506 141.299 181.099 132.271 176.831C125.881 173.695 120.174 169.326 115.479 163.976C111.793 159.716 108.247 152.653 104.25 152.019C101.274 151.547 97.9782 153.478 97.945 156.824C97.8696 164.603 104.615 170.983 109.507 175.296C114.85 180.012 130.887 188.819 150.708 190.487C154.611 190.822 173.868 190.852 173.817 184.021C173.781 183.389 173.549 182.785 173.152 182.292C172.755 181.8 172.214 181.444 171.605 181.274Z" fill="#9FC151"/>
<g style="mix-blend-mode:overlay" opacity="0.5">
<path d="M162.314 190.136C163.103 187.301 162.904 184.282 161.75 181.575C152.169 181.473 141.026 180.974 132.271 176.831C125.881 173.695 120.174 169.326 115.479 163.976C112.242 160.235 109.116 154.341 105.693 152.529C111.164 166.47 124.958 177.707 138.787 182.258C142.978 183.634 153.222 184.776 151.956 190.559C155.415 190.675 158.877 190.533 162.314 190.136Z" fill="#60233F"/>
</g>
<path d="M168.324 111.69C162.129 108.458 157.038 117.837 154.25 125.557C154.008 122.12 153.151 118.754 151.722 115.619C149.934 111.863 144.45 107.309 140.232 110.075C136.86 112.286 137.495 118.243 138.263 121.515C140.59 131.363 149.908 142.115 161.624 133.511C166.915 129.624 178.342 116.919 168.324 111.69Z" fill="#DB282D"/>
<path opacity="0.5" d="M145.378 125.463C143.904 121.638 141.979 118.191 142.735 113.948C142.972 112.617 140.966 112.032 140.693 113.383C140.218 115.639 140.277 117.975 140.866 120.203C141.455 122.432 142.558 124.492 144.086 126.218C144.587 126.77 145.663 126.197 145.378 125.463Z" fill="#FAC5AB"/>
<path opacity="0.5" d="M165.462 114.058C162.845 116.335 160.878 119.265 159.761 122.55C159.495 123.236 160.508 123.555 160.814 122.921C162.275 119.889 164.665 117.765 166.73 115.183C167.364 114.398 166.193 113.486 165.462 114.058Z" fill="#FAC5AB"/>
<path d="M140.444 20.8791C105.933 -1.0975 55.0256 34.3631 67.3147 44.2588C86.7778 59.9302 128.1 49.6091 139.945 35.3979C145.258 29.0185 145.974 24.3987 140.444 20.8791Z" fill="#9FC151"/>
<g style="mix-blend-mode:multiply" opacity="0.5">
<path d="M140.444 20.8791C129.72 14.0491 117.411 12.7729 105.911 14.543C107.977 14.8813 110.063 15.0792 112.156 15.1354C112.459 16.1715 112.472 17.2709 112.193 18.3138C111.914 19.3566 111.355 20.3029 110.575 21.0495C106.522 25.1569 97.8216 25.0712 93.4604 21.8339C92.6302 21.2199 91.7726 22.369 92.1614 23.1397C96.0401 30.8229 107.183 30.7257 113.833 26.9041C115.607 25.9584 117.082 24.535 118.089 22.7949C119.097 21.0547 119.597 19.0674 119.534 17.0576C122.023 17.475 125.625 17.786 127.622 19.547C136.135 27.062 124.392 38.4944 117.955 41.9489C109.792 46.325 99.1972 47.8755 90.0894 48.4165C81.7054 49.0611 73.3256 47.1169 66.0819 42.8465C66.4046 43.3876 66.8222 43.866 67.3147 44.2588C86.7778 59.9302 128.1 49.6091 139.945 35.3979C145.258 29.0185 145.974 24.3987 140.444 20.8791Z" fill="#389783"/>
</g>
<path d="M109.968 3.76688C108.04 2.01569 105.676 0.816096 103.124 0.29415C100.573 -0.227796 97.9277 -0.0528203 95.4671 0.800688C92.5055 1.90873 88.939 3.65716 87.4971 6.67253C86.2038 9.31644 85.7224 12.2841 86.1135 15.2013C86.5046 18.1184 87.7508 20.8544 89.6948 23.0643C91.103 24.465 92.794 25.5488 94.6548 26.2434C96.5156 26.9379 98.5032 27.2271 100.485 27.0916C105.276 26.7235 110.083 24.6137 112.403 20.1142C115.093 14.8758 114.542 7.85482 109.968 3.76688Z" fill="#DB282D"/>
<path d="M127.578 162.539C127.655 162.374 127.669 162.26 127.578 162.539V162.539Z" fill="#FBF8F0"/>
<path d="M122.6 84.8661C118.78 85.0125 118.238 89.2696 117.552 92.1009C117.517 92.2479 117.541 92.4027 117.618 92.5327C117.695 92.6628 117.819 92.7577 117.965 92.7975C118.111 92.8373 118.266 92.8189 118.398 92.7461C118.531 92.6733 118.63 92.5518 118.674 92.4074C119.2 90.7551 120.007 88.2679 121.525 87.2572C124.394 85.3372 126.333 89.5635 127.392 91.4445C127.779 92.1478 128.753 91.91 128.628 91.1164C128.061 87.376 125.869 84.7403 122.6 84.8661Z" fill="#A27259"/>
<path d="M157.437 86.945C157.259 85.5327 156.613 84.2209 155.6 83.2202C154.588 82.2195 153.269 81.5878 151.855 81.4265C148.673 81.1532 146.911 84.9931 146.738 87.7477C146.688 88.4852 147.515 88.7254 147.745 88.0473C148.376 86.1765 149.731 83.3258 151.855 83.3373C153.972 83.3476 155.22 85.1988 156.29 87.4926C156.657 88.2794 157.596 87.8575 157.437 86.945Z" fill="#A27259"/>
<path d="M147.692 96.2244C144.882 94.7599 142.362 92.7935 140.26 90.4223C139.986 90.1032 139.527 90.5104 139.704 90.8511C141.184 93.4464 143.366 95.5721 145.999 96.9848C144.803 97.9441 143.65 98.947 142.52 99.9956C141.898 100.568 142.716 101.652 143.433 101.172C145.059 100.092 146.335 98.6371 147.843 97.4102C147.924 97.3283 147.986 97.2291 148.023 97.12C148.06 97.0109 148.071 96.8947 148.057 96.7804C148.042 96.6662 148.002 96.5567 147.939 96.4603C147.876 96.364 147.791 96.2833 147.692 96.2244Z" fill="#D4A47F"/>
<g style="mix-blend-mode:multiply" opacity="0.3">
<path d="M99.7152 81.7455C97.2304 80.6592 93.6524 78.7896 89.927 77.0824C88.74 76.5382 88.5936 76.8252 89.1448 78.075C90.7056 81.5878 95.2933 86.4818 96.7536 87.5876C98.3727 88.8169 101.267 82.4202 99.7152 81.7455Z" fill="#CE7953"/>
</g>
<g style="mix-blend-mode:overlay" opacity="0.5">
<path d="M68.7131 74.4845C62.3222 82.1961 57.6602 90.7904 48.7948 96.0608C40.7846 100.811 28.4054 104.087 19.3627 100.814C18.7372 100.591 18.337 101.569 18.9099 101.878C28.2612 106.872 38.6807 105.178 48.0892 101.165C58.6779 96.652 66.2615 86.5047 71.43 76.5826C72.3048 74.9167 70.0189 72.8995 68.7131 74.4845Z" fill="#FBF8F0"/>
</g>
<g style="mix-blend-mode:overlay" opacity="0.5">
<path d="M61.5114 54.3888C58.8122 57.1099 56.602 60.2756 54.9776 63.7471C54.694 64.2891 55.4099 64.9146 55.857 64.4275C58.4104 61.6065 60.894 58.7227 63.198 55.6878C63.9608 54.6816 62.3668 53.5965 61.5114 54.3888Z" fill="#FBF8F0"/>
</g>
<g style="mix-blend-mode:multiply" opacity="0.3">
<path d="M81.8609 105.807C71.6153 114.447 57.2863 124.033 43.1437 119.111C42.5834 118.916 42.1912 119.828 42.7378 120.067C49.8137 123.164 56.8769 122.409 64.0695 120.002C71.0664 117.666 79.1577 113.226 83.4011 106.994C84.0678 106.017 82.6591 105.135 81.8609 105.807Z" fill="#BA9F81"/>
</g>
<g style="mix-blend-mode:multiply" opacity="0.4">
<path d="M118.684 58.3213C116.806 60.2755 115.749 62.9913 114.07 65.1399C112.045 67.71 109.608 69.9267 106.858 71.7C106.743 71.7725 106.66 71.887 106.628 72.0193C106.596 72.1516 106.616 72.2913 106.685 72.4089C106.754 72.5264 106.866 72.6126 106.997 72.6491C107.128 72.6856 107.268 72.6697 107.388 72.6046C110.391 71.0371 113.097 68.9566 115.383 66.4572C117.312 64.3589 119.54 61.7231 119.911 58.829C119.998 58.183 119.09 57.9073 118.684 58.3213Z" fill="#BA9F81"/>
</g>
<g style="mix-blend-mode:multiply" opacity="0.4">
<path d="M134.842 53.2373C134.663 52.5158 133.764 52.6566 133.521 53.2373C132.61 55.4569 132.359 57.9349 131.518 60.2127C130.539 62.7918 129.294 65.2614 127.801 67.5812C127.756 67.6652 127.742 67.7626 127.762 67.8561C127.781 67.9495 127.834 68.0329 127.91 68.0912C127.985 68.1496 128.079 68.1791 128.175 68.1744C128.27 68.1698 128.361 68.1314 128.43 68.0661C131.658 64.5533 136.133 58.3213 134.842 53.2373Z" fill="#BA9F81"/>
</g>
<path d="M103.911 10.5878C103.786 8.88356 103.015 7.29135 101.755 6.1373C100.229 4.8378 98.2525 4.19143 96.2533 4.33803C94.2541 4.48463 92.3931 5.41241 91.0727 6.92065C87.3816 11.3676 89.3163 19.117 95.5587 19.8282C100.875 20.4366 104.363 15.2852 103.911 10.5878Z" fill="#EE6D53"/>
<g style="mix-blend-mode:overlay" opacity="0.5">
<path d="M108.159 37.1349C104.917 35.3727 101.28 34.7256 97.7164 33.9045C94.9275 33.2641 88.4199 30.9966 87.2353 28.4981C86.6258 27.2048 85.998 26.0385 84.7848 25.9504C84.4499 25.8203 84.0779 25.8235 83.7454 25.9596C78.1011 27.947 67.4141 38.0005 71.4129 40.7517C75.2184 43.3657 82.4189 44.2485 90.3295 44.1707C96.1018 44.1101 102.933 43.9786 108.159 41.3623C108.524 41.1434 108.826 40.8337 109.036 40.4633C109.246 40.0928 109.356 39.6743 109.356 39.2486C109.356 38.8228 109.246 38.4043 109.036 38.0339C108.826 37.6634 108.524 37.3537 108.159 37.1349Z" fill="#FBF8F0"/>
</g>
<path d="M333.217 89.416C333.047 89.4503 332.885 89.4869 332.717 89.5177C332.886 89.4997 333.054 89.4656 333.217 89.416Z" fill="#A7C94E"/>
<path d="M347.24 74.7931C335.796 62.7763 319.147 69.9379 308.533 78.5312C304.768 81.5832 302.112 85.4927 299.199 89.3657C299.101 89.4995 299.013 89.6161 298.924 89.7373C297.833 91.0718 296.675 92.3433 295.472 93.584C289.273 99.9772 282.552 105.959 275.819 111.781C272.443 114.698 268.875 117.446 265.671 120.551C255.094 130.803 252.688 148.722 263.613 159.646C272.216 168.25 284.302 166.247 294.007 171.808C298.348 174.297 300.534 177.627 305.938 178.788C311.535 179.998 317.382 179.08 322.34 176.213C337.084 167.575 340.251 141.841 344.245 126.858C346.469 118.529 349.015 110.269 350.766 101.807C352.731 92.2873 354.744 82.6683 347.24 74.7931Z" fill="#60233F"/>
<path d="M314.274 25.2918C308.815 26.3633 305.981 32.9668 304.71 37.686C303.413 42.4806 302.863 48.389 304.897 53.099C304.741 53.3095 304.586 53.5244 304.435 53.7394C302.312 47.432 298.716 41.7217 293.945 37.0823C290.297 33.7078 284.062 31.9446 280.909 37.0159C277.804 42.0153 282.558 47.7132 286.074 50.285C290.873 53.7954 298.384 55.6067 304.31 55.2327C304.365 55.2257 304.419 55.213 304.472 55.195C304.624 55.3418 304.82 55.4357 305.03 55.4627C305.239 55.4897 305.452 55.4484 305.637 55.3449C305.778 55.2556 305.912 55.1504 306.053 55.0658C306.16 55.1158 306.277 55.1373 306.395 55.1283C306.512 55.1193 306.625 55.08 306.723 55.0144C306.82 54.9488 306.9 54.859 306.952 54.7538C307.005 54.6486 307.03 54.5315 307.024 54.414C310.589 51.659 313.857 48.5411 316.778 45.1106C319.529 42.1307 322.396 38.5596 323.352 34.5461C324.791 28.5393 320.103 24.1426 314.274 25.2918Z" fill="#63863B"/>
<g style="mix-blend-mode:overlay" opacity="0.5">
<path d="M315.788 27.0071C310.068 29.6416 306.687 37.3669 305.934 43.2822C305.935 43.4149 305.974 43.5446 306.048 43.655C306.122 43.7653 306.226 43.8514 306.349 43.9024C306.471 43.9535 306.606 43.9672 306.736 43.9419C306.867 43.9166 306.987 43.8534 307.081 43.7602C308.616 41.5664 309.97 39.2512 311.129 36.8376C312.769 33.7994 315.184 31.6553 317.376 29.0687C317.591 28.8406 317.717 28.5433 317.733 28.2303C317.749 27.9173 317.652 27.609 317.461 27.3607C317.269 27.1124 316.996 26.9404 316.689 26.8756C316.383 26.8108 316.063 26.8574 315.788 27.0071Z" fill="#F7F2E7"/>
</g>
<g style="mix-blend-mode:overlay" opacity="0.5">
<path d="M288.047 47.6195C287.706 46.0677 287.103 44.6098 286.615 43.0946C286.189 41.4528 285.879 39.7831 285.687 38.0977C285.458 36.7472 283.403 36.865 283.092 38.0977C282.105 41.9866 284.09 45.7064 286.956 48.2529C287.059 48.3504 287.191 48.4119 287.332 48.4283C287.473 48.4447 287.615 48.415 287.738 48.3437C287.861 48.2725 287.957 48.1634 288.013 48.0329C288.068 47.9024 288.08 47.7573 288.047 47.6195Z" fill="#F7F2E7"/>
</g>
<path d="M337.168 43.2239C335.912 41.3394 280.72 53.0727 273.536 59.8432C270.821 62.4058 289.645 119.078 292.063 119.707C301.541 122.171 349.263 107.767 352.166 106.182C355.627 104.296 342.402 51.0705 337.168 43.2239Z" fill="#DAE47B"/>
<g style="mix-blend-mode:multiply" opacity="0.5">
<path d="M323.488 73.9115C321.091 74.0167 320.112 70.5715 319.451 68.6961C318.265 65.3182 315.738 56.5569 313.282 46.9723C311.461 47.3759 309.605 47.807 307.735 48.2507C307.864 50.1259 308.193 52.0127 308.412 53.8275C308.906 57.9325 315.106 77.35 313.084 81.2744C311.321 84.7049 306.229 85.5351 303.353 87.7522C297.135 92.5583 301.513 104.19 302.976 110.454C303.562 113.3 304.413 116.084 305.518 118.771C309.576 118.042 314.13 117.043 318.763 115.922C319.016 114.18 319.152 112.424 319.17 110.664C320.779 109.593 322.454 108.625 324.185 107.764C325.141 105.899 325.666 103.843 325.722 101.748C326.057 101.419 326.323 101.027 326.507 100.595C326.591 100.392 326.661 100.2 326.734 100.001C328.012 99.7319 329.135 98.9766 329.866 97.8949C330.7 96.6214 331.236 95.1759 331.433 93.6664C333.244 92.5448 334.604 90.8228 335.275 88.8008C335.421 88.778 335.595 88.7528 335.788 88.7231C336.341 88.6659 336.889 88.5858 337.434 88.4795C338.715 88.19 339.979 87.8316 341.221 87.4058C342.885 86.9014 344.555 86.4109 346.229 85.9604C346.867 85.7923 347.51 85.6436 348.152 85.5054C348.416 85.4437 348.684 85.3971 348.953 85.3658C349.264 85.5636 349.604 85.7125 349.961 85.8072C348.942 81.072 347.72 75.9515 346.415 70.9362C343.432 71.4279 341.658 70.7933 338.649 71.2187C333.717 71.907 327.361 73.7434 323.488 73.9115Z" fill="#63863B"/>
</g>
<path d="M343.78 79.2985C345.253 78.8868 346.728 78.4935 348.205 78.0955C347.485 75.0791 346.707 72.0145 345.909 69.0186C334.154 72.0796 321.574 76.083 318.695 77.0733C316.554 68.9271 313.709 58.0434 310.809 47.5326C307.923 48.1958 304.97 48.907 302.05 49.6503C305.152 61.7586 308.833 74.7417 310.003 79.1932C306.827 80.0829 291.843 83.7284 279.795 87.0936C280.659 89.8505 281.554 92.6384 282.458 95.3667C292.463 93.3907 303.001 90.2976 312.13 87.7923C314.873 97.1528 317.681 106.431 320.108 115.59C322.851 114.918 325.599 114.207 328.284 113.486C325.61 102.589 322.289 89.1782 321.21 85.3989C321.29 85.3784 321.37 85.3544 321.448 85.3372C329.816 83.2732 335.477 81.6106 343.78 79.2985Z" fill="url(#paint0_linear_3_9594)"/>
<g style="mix-blend-mode:multiply" opacity="0.2">
<path d="M345.912 69.0243C342.79 57.2396 339.309 46.4371 337.168 43.2239C336.871 42.7779 333.528 43.0982 328.504 43.9385C331.657 59.4384 327.116 74.7383 308.623 75.2209C297.272 75.5216 287.213 73.2735 275.97 74.1071C276.418 75.7514 276.909 77.4838 277.424 79.2699C283.297 79.669 289.218 79.5203 294.958 81.3385C300.766 83.1738 305.204 88.1765 307.902 93.401C310.64 98.6805 311.518 104.962 311.879 110.82C311.953 113.063 311.894 115.309 311.701 117.546C314.538 116.934 317.494 116.242 320.463 115.508C320.362 112.956 320.124 110.486 319.956 108.375C319.903 107.723 319.834 107.078 319.765 106.431C333.66 99.8492 343.348 84.7163 345.912 69.0243Z" fill="#60233F"/>
</g>
<path d="M229.327 91.6321C227.553 87.6287 223.088 82.9531 218.233 85.79C209.613 90.8213 217.885 100.71 224.982 105.121C217.281 103.368 203.117 102.589 206.473 112.089C208.32 117.333 213.277 116.686 217.414 114.691C220.225 113.212 222.866 111.427 225.287 109.37C226.122 108.716 227.16 108.046 228.108 107.299C228.143 107.304 228.177 107.312 228.21 107.323C228.342 107.367 228.486 107.358 228.611 107.297C228.736 107.237 228.833 107.129 228.879 106.998C229.066 107.059 229.252 107.113 229.425 107.156H229.462C229.544 107.649 229.663 108.135 229.818 108.611C229.896 108.862 230.06 109.077 230.282 109.219C230.504 109.36 230.768 109.419 231.029 109.383C231.29 109.348 231.529 109.221 231.705 109.025C231.881 108.83 231.982 108.578 231.99 108.315C232.457 102.621 231.543 96.898 229.327 91.6321Z" fill="#DB282D"/>
<path d="M288.669 78.2648C288.669 78.2648 251.325 79.2299 241.891 82.5322C232.458 85.837 218.777 97.6273 224.909 117.436C231.041 137.246 259.814 144.794 290.002 140.079L288.669 78.2648Z" fill="#E64D37"/>
<g style="mix-blend-mode:overlay">
<path d="M243.832 81.9765C243.102 82.1538 242.44 82.3413 241.891 82.5323C232.458 85.837 218.777 97.6274 224.909 117.436C226.012 120.969 227.865 124.222 230.341 126.973C230.508 126.624 230.566 126.233 230.509 125.851C229.856 121.612 227.631 117.653 226.709 113.418C225.719 108.587 225.913 103.589 227.275 98.8497C229.327 91.6321 236.612 86.3584 243.832 81.9765Z" fill="#FBDFE0"/>
</g>
<g style="mix-blend-mode:multiply" opacity="0.3">
<path d="M258.535 79.932C253.343 82.8019 249.085 87.1022 246.266 92.3217C244.083 96.7575 242.752 101.564 242.342 106.49C241.787 111.541 241.621 118.337 244.142 122.899C244.328 123.205 244.599 123.45 244.922 123.604C245.245 123.759 245.605 123.816 245.96 123.77C246.315 123.723 246.649 123.575 246.921 123.342C247.193 123.11 247.392 122.804 247.493 122.46C248.354 118.434 247.049 114.097 246.82 110.007C246.429 104.62 247.414 99.2232 249.681 94.3216C253.177 86.9998 261.202 81.8371 267.457 79.2481C264.486 79.4415 261.456 79.6666 258.535 79.932Z" fill="#60233F"/>
</g>
<path d="M254.807 80.2945C250.175 82.532 246.248 86 243.456 90.3194C236.786 101.542 236.598 119.073 242.534 130.715C242.748 131.127 243.1 131.452 243.529 131.631C243.957 131.811 244.435 131.836 244.88 131.7C245.324 131.565 245.708 131.278 245.963 130.89C246.218 130.501 246.33 130.036 246.278 129.574C245.88 124.33 244.392 119.214 243.906 113.962C243.338 107.687 244.263 101.368 246.605 95.5187C249.351 88.6235 256.11 82.4271 263.876 79.494C260.779 79.7239 257.69 79.9845 254.807 80.2945Z" fill="url(#paint1_linear_3_9594)"/>
<g style="mix-blend-mode:multiply" opacity="0.3">
<g style="mix-blend-mode:multiply" opacity="0.5">
<path d="M268.891 92.7116C272.288 84.9896 279.428 78.6524 288.087 78.2797C286.755 78.3174 283.241 78.4317 278.67 78.633C276.805 79.3827 275.031 80.3438 273.385 81.4974C268.248 85.1143 265.092 90.8465 261.977 96.1374C258.146 102.664 254.108 107.227 246.797 109.777C239.604 112.288 231.57 113.175 223.926 113.457C224.179 114.8 224.507 116.129 224.909 117.436C226.444 122.253 229.315 126.536 233.188 129.786C235.451 130.055 237.663 130.175 239.542 130.268C247.683 130.675 257.605 128.915 265.31 132.063C267.353 132.898 269.672 131.547 270.667 129.664C264.525 118.712 264.225 103.337 268.891 92.7116Z" fill="#A61E22"/>
</g>
<path d="M288.669 78.2694V78.2648C288.669 78.2648 288.625 78.267 288.544 78.267C288.586 78.267 288.631 78.2694 288.669 78.2694Z" fill="#60233F"/>
</g>
<path d="M309.498 93.5394C306.511 86.1125 298.737 78.8422 290.078 78.2945C280.534 77.6839 272.546 84.4064 268.891 92.7116C262.35 107.602 265.556 131.821 280.939 140.123C284.894 142.197 289.407 142.956 293.823 142.289C298.239 141.622 302.327 139.563 305.492 136.412C316.104 125.93 314.414 105.768 309.498 93.5394Z" fill="#A61E22"/>
<g style="mix-blend-mode:multiply" opacity="0.3">
<path d="M291.255 78.4237C296.184 83.9067 300.298 90.0026 301.841 97.2775C303.616 105.647 301.645 116.235 296.299 122.993C295.36 124.178 294.247 125.215 292.999 126.069C291.368 122.574 289.163 118.714 285.938 116.633C285.408 116.238 284.787 115.982 284.132 115.888C283.477 115.795 282.809 115.867 282.189 116.099C281.57 116.33 281.018 116.713 280.585 117.213C280.151 117.712 279.85 118.313 279.708 118.959C279.043 121.793 280.095 124.578 280.509 127.327C277.67 126.109 275.269 124.056 273.624 121.442C269.25 114.595 267.298 104.624 267.511 96.4873C262.954 111.405 266.799 132.49 280.939 140.123C284.894 142.197 289.407 142.956 293.823 142.289C298.239 141.622 302.327 139.563 305.492 136.412C316.104 125.93 314.414 105.768 309.498 93.5394C306.649 86.4544 299.435 79.518 291.255 78.4237Z" fill="#60233F"/>
</g>
<path d="M147.72 271.687C141.373 269.702 124.22 279.653 109.96 283.009C98.9456 285.596 73.5294 293.685 62.1701 293.42C67.9206 285.429 64.8368 271.697 53.8615 271.174C43.3861 270.669 35.6116 281.718 37.5326 290.768C40.2015 303.326 50.303 305.772 63.5869 303.336C72.8216 301.641 113.977 291.583 123.495 288.128C128.485 286.315 147.378 282.637 149.987 277.766C150.307 277.231 150.502 276.631 150.559 276.011C150.616 275.391 150.532 274.765 150.314 274.182C150.096 273.598 149.75 273.071 149.301 272.639C148.852 272.207 148.311 271.882 147.72 271.687Z" fill="#C2C7C0"/>
<g style="mix-blend-mode:multiply" opacity="0.2">
<path d="M63.5869 303.336C72.8216 301.641 113.977 291.583 123.495 288.128C124.341 287.819 125.597 287.458 127.096 287.046C126.721 286.486 126.238 286.006 125.675 285.634C125.113 285.263 124.481 285.007 123.819 284.883C123.006 282.931 121.726 281.21 120.091 279.871C116.776 281.109 113.394 282.157 109.96 283.009C108.193 283.423 106.042 283.981 103.649 284.624C104.523 285.319 105.353 286.067 106.134 286.866C108.713 289.575 104.909 291.153 102.784 291.767C88.1843 295.985 81.2034 297.704 71.9663 299.229C64.0774 300.53 57.1822 301.951 49.2796 300.063C44.6063 298.91 40.5305 296.056 37.8482 292.059C40.9265 303.492 50.773 305.689 63.5869 303.336Z" fill="#60233F"/>
</g>
<path d="M386.231 261.373C367.682 271.361 343.458 282.441 320.383 292.368C320.504 289.14 319.671 270.484 318.988 264.946C318.605 261.883 313.919 262.939 313.558 266.018C312.901 271.581 312.719 290.3 313.005 295.428C287.305 306.353 265.217 315.056 253.683 319.319C249.792 320.754 244.114 322.915 237.368 325.347C237.74 321.397 237.238 308.962 236.944 305.109C236.467 298.82 235.783 300.853 234.82 294.609C234.395 291.817 229.991 292.563 230.001 295.26C230.036 301.306 229.354 300.497 229.255 306.538C229.177 311.121 229.434 321.463 229.823 328.474C208.025 336.069 179.39 344.187 160.29 342.9C173.97 316.017 135.761 314.129 134.814 335.349C134.255 348.025 141.542 354.327 154.236 355.217C177.719 356.875 214.139 344.623 224.909 341.482C253.539 333.141 384.79 276.581 387.721 273.762C388.943 272.588 390.167 271.415 391.393 270.244C395.582 266.23 390.569 259.032 386.231 261.373Z" fill="#C2C7C0"/>
<g style="mix-blend-mode:multiply" opacity="0.3">
<path d="M313.036 275.621C312.948 279.009 312.89 282.716 312.879 286.072C315.256 284.936 317.679 283.909 320.147 282.994C320.005 279.643 319.817 275.923 319.609 272.624C318.944 272.907 318.287 273.189 317.642 273.462C316.067 274.132 314.525 274.843 313.036 275.621Z" fill="#60233F"/>
</g>
<g style="mix-blend-mode:multiply" opacity="0.3">
<path d="M229.266 305.891C229.263 306.101 229.258 306.303 229.255 306.538C229.221 308.521 229.252 311.573 229.327 314.975C231.465 314.454 236.702 312.926 237.326 312.776C237.21 309.579 237.059 306.654 236.944 305.109C236.892 304.432 236.837 303.861 236.781 303.35C235.525 303.719 234.289 304.116 233.067 304.522C231.851 304.93 230.556 305.371 229.266 305.891Z" fill="#60233F"/>
</g>
<g style="mix-blend-mode:multiply" opacity="0.2">
<path d="M344.519 293.345C345.578 289.608 345.309 285.619 343.757 282.059C340.253 283.645 336.731 285.221 333.189 286.788C331.918 292.594 326.587 296.698 319.488 299.874C275.425 319.628 238.713 333.615 212.504 341.629C198.378 345.949 183.919 349.741 169.231 351.576C157.853 353 143.181 353.739 136.067 344.271C138.63 351.031 144.99 354.567 154.236 355.217C177.719 356.875 214.139 344.623 224.909 341.482C243.1 336.185 302.71 311.423 344.519 293.345Z" fill="#60233F"/>
</g>
<path d="M188.448 138.781C185.671 136.784 182.374 135.635 178.956 135.476C175.539 135.316 172.149 136.152 169.198 137.883C160.841 142.407 157.326 152.032 156.888 160.987C156.371 171.571 160.397 182.667 154.656 192.436C149.227 201.669 138.731 201.667 129.555 199.483C128.22 199.164 126.853 200.99 128.098 201.984C132.003 205.152 136.954 206.74 141.974 206.433C141.795 207.274 141.894 208.15 142.255 208.929C142.617 209.709 143.221 210.35 143.978 210.757C161.961 221.82 183.235 204.624 191.392 189.104C198.551 175.499 203.48 149.322 188.448 138.781Z" fill="#831726"/>
<path d="M278.359 125.93C276.587 123.022 250.127 113.182 243.927 114.136C237.795 115.079 213.264 120.203 205.248 125.93C201.943 128.283 200.655 147.76 203.523 158.837C206.87 171.752 217.218 178.468 229.972 179.92C241.266 181.024 252.651 180.809 263.896 179.279C272.585 178.173 276.969 178.171 279.301 168.382C281.662 158.472 283.547 134.417 278.359 125.93Z" fill="#A7C94E"/>
<g style="mix-blend-mode:overlay" opacity="0.2">
<path d="M210.028 157.381C209.406 155.336 205.599 137.816 203.489 129.336C202.626 132.791 202.138 136.328 202.033 139.887C203.705 146.814 205.827 155.857 206.675 159.043C207.165 160.876 210.596 159.252 210.028 157.381Z" fill="#F3ECD5"/>
</g>
<g style="mix-blend-mode:overlay" opacity="0.2">
<path d="M211.486 130.577C211.459 130.48 211.442 130.409 211.423 130.326C210.057 129.772 208.744 129.225 207.498 128.68C208.998 135.245 211.655 147.66 212.64 151.802C213.971 157.431 211.104 153.991 214.721 158.661C215.765 160.008 218.429 158.809 218.012 157.298C217.017 153.689 212.832 136.036 211.486 130.577Z" fill="#F3ECD5"/>
</g>
<g style="mix-blend-mode:overlay" opacity="0.2">
<path d="M219.721 133.427C218.302 132.93 216.892 132.425 215.514 131.911C215.548 132.024 215.58 132.142 215.62 132.277C217.398 138.856 221.654 156.951 223.344 163.483C223.856 165.458 226.627 164.185 226.738 162.49C226.955 159.116 226.063 156.485 224.987 153.325C223.805 149.842 220.724 136.96 219.721 133.427Z" fill="#F3ECD5"/>
</g>
<g style="mix-blend-mode:overlay" opacity="0.2">
<path d="M228.664 136.276C227.212 135.86 225.734 135.41 224.243 134.932C225.886 140.214 230.158 156.242 231.922 159.681C232.667 161.128 235.87 160.708 235.449 159.043C234.349 154.745 230.437 141.489 228.664 136.276Z" fill="#F3ECD5"/>
</g>
<g style="mix-blend-mode:overlay" opacity="0.2">
<path d="M237.955 138.524C236.563 138.271 235.063 137.949 233.485 137.566C235.009 141.678 239.282 156.366 241.102 159.285C241.297 159.531 241.571 159.701 241.877 159.765C242.184 159.83 242.504 159.786 242.781 159.64C242.753 157.166 242.747 154.654 242.753 152.135C241.147 147.289 238.854 140.841 237.955 138.524Z" fill="#F3ECD5"/>
</g>
<g style="mix-blend-mode:multiply" opacity="0.1">
<path d="M242.827 139.107C241.884 142.167 239.917 144.809 237.256 146.59C233.659 148.802 228.331 148.699 222.939 147.914C215.667 146.85 208.953 144.813 201.94 143.343C201.909 146.738 202.104 150.133 202.523 153.503C205.118 154.71 207.87 155.548 210.698 155.992C220.698 157.995 230.646 159.935 239.468 165.304C239.738 165.459 240.04 165.55 240.35 165.57C240.661 165.591 240.972 165.54 241.26 165.423C241.548 165.306 241.806 165.124 242.013 164.892C242.221 164.661 242.373 164.385 242.458 164.085C242.589 163.479 242.701 162.876 242.827 162.274C242.664 154.681 242.806 146.509 242.827 139.107Z" fill="#60233F"/>
</g>
<g style="mix-blend-mode:multiply" opacity="0.3">
<path d="M245.2 138.969C244.42 139.131 243.62 139.178 242.827 139.107C242.798 149.198 242.538 160.744 243.138 170.264C243.323 173.273 243.62 176.291 243.664 179.31C243.673 179.749 243.653 180.182 243.62 180.62C250.4 180.591 257.172 180.143 263.896 179.279C272.585 178.173 276.969 178.171 279.301 168.382C281.593 158.758 283.441 135.789 278.788 126.698C278.654 126.428 266.821 132.639 245.2 138.969Z" fill="#60233F"/>
</g>
<g style="mix-blend-mode:overlay" opacity="0.3">
<path d="M276.667 173.19C275.304 167.863 272.365 164.165 269.694 159.411C266.788 154.231 259.366 140.71 256.393 135.563C256.37 135.522 256.354 135.495 256.336 135.46C255.024 135.9 253.651 136.351 252.235 136.811C254.79 141.615 261.911 154.408 264.505 159.043C267.384 164.179 269.746 169.907 273.289 174.615C273.524 174.987 273.883 175.265 274.303 175.397C274.724 175.529 275.177 175.508 275.583 175.337C275.989 175.166 276.321 174.856 276.519 174.462C276.718 174.069 276.77 173.618 276.667 173.19Z" fill="#F3ECD5"/>
</g>
<g style="mix-blend-mode:overlay" opacity="0.3">
<path d="M261.712 133.568C261.779 133.697 261.838 133.808 261.909 133.943C264.514 138.817 271.885 151.809 274.647 156.596C276.39 159.613 277.97 162.901 279.812 165.968C280.261 163.614 280.669 160.792 280.991 157.725C280.589 157.053 280.183 156.387 279.802 155.727C276.706 150.454 268.864 137.417 265.692 132.082C264.45 132.556 263.123 133.052 261.712 133.568Z" fill="#F3ECD5"/>
</g>
<g style="mix-blend-mode:overlay" opacity="0.3">
<path d="M270.883 130.02C270.92 130.087 270.954 130.145 270.99 130.21C273.838 135.175 277.953 142.699 281.595 149.144C281.698 146.348 281.7 143.539 281.572 140.848C279.061 136.115 276.509 131.38 274.73 128.397C273.655 128.859 272.373 129.4 270.883 130.02Z" fill="#F3ECD5"/>
</g>
<g style="mix-blend-mode:overlay" opacity="0.3">
<path d="M278.359 125.93C276.587 123.022 250.126 113.182 243.927 114.136C237.795 115.079 213.264 120.203 205.248 125.93C204.829 126.278 204.497 126.72 204.279 127.22C215.947 132.781 238.438 140.259 245.2 138.969C249.699 138.108 266.571 132.137 278.788 126.698C278.654 126.431 278.508 126.174 278.359 125.93Z" fill="#F7F2E7"/>
</g>
<g style="mix-blend-mode:multiply" opacity="0.2">
<path d="M281.401 152.888C272.652 153.549 260.954 152.565 257.043 149.967C253.205 147.413 253.065 143.432 255.46 140.55C258.547 136.832 274.471 133.96 279.528 128.418C279.315 127.831 279.068 127.256 278.788 126.698C278.654 126.428 266.821 132.639 245.2 138.969C244.42 139.131 243.62 139.178 242.827 139.107C242.809 144.964 242.721 151.307 242.76 157.464C244.294 158.173 245.947 158.588 247.634 158.686C253.81 159.28 260.285 159.373 266.339 160.896C266.702 160.966 267.075 160.962 267.436 160.883C267.797 160.805 268.138 160.654 268.439 160.44C268.741 160.226 268.995 159.953 269.188 159.638C269.381 159.323 269.508 158.972 269.561 158.606C273.721 159.109 277.746 159.322 280.79 159.502C281.042 157.411 281.25 155.181 281.401 152.888Z" fill="#60233F"/>
</g>
<g style="mix-blend-mode:overlay" opacity="0.2">
<path d="M240.258 114.785C240.89 122.248 242.018 134.995 242.827 139.107C243.621 139.144 244.416 139.098 245.2 138.969C245.672 138.88 246.295 138.726 247.022 138.529C247.016 138.501 247.012 138.469 247.005 138.435C246.418 134.048 245.557 121.283 244.64 114.075C244.401 114.079 244.163 114.099 243.927 114.136C243.05 114.271 241.781 114.494 240.258 114.785Z" fill="#F3ECD5"/>
</g>
<g style="mix-blend-mode:overlay" opacity="0.2">
<path d="M252.312 136.906C253.564 136.495 254.92 136.034 256.348 135.53C255.576 129.725 254.54 122.099 253.735 115.707C252.141 115.272 250.631 114.899 249.262 114.621C249.886 122.088 250.913 131.286 252.312 136.906Z" fill="#F3ECD5"/>
</g>
<g style="mix-blend-mode:overlay" opacity="0.2">
<path d="M261.628 133.629C262.959 133.13 264.322 132.619 265.692 132.086V132.082C265.16 129.814 264.271 124.26 263.318 118.771C261.87 118.251 260.401 117.749 258.939 117.272C259.508 122.773 260.405 128.235 261.628 133.629Z" fill="#F3ECD5"/>
</g>
<g style="mix-blend-mode:overlay" opacity="0.2">
<path d="M274.73 128.397C274.355 126.938 274.008 125.047 273.676 122.998C272.312 122.348 270.737 121.657 269.015 120.956C269.598 124.197 270.163 127.242 270.883 130.02L270.89 130.036C272.191 129.51 273.481 128.981 274.746 128.445C274.741 128.429 274.736 128.413 274.73 128.397Z" fill="#F3ECD5"/>
</g>
<g style="mix-blend-mode:overlay" opacity="0.2">
<path d="M233.485 137.566C235.063 137.949 236.563 138.271 237.955 138.524C237.422 131.551 236.549 121.161 236.11 115.638C234.719 115.938 233.225 116.275 231.662 116.639C232.205 121.609 232.723 130.657 233.485 137.566Z" fill="#F3ECD5"/>
</g>
<g style="mix-blend-mode:overlay" opacity="0.2">
<path d="M224.243 134.932C225.734 135.41 227.212 135.86 228.664 136.276C228.287 129.867 227.766 122.24 227.359 117.699C226.139 118.012 224.904 118.337 223.672 118.679C223.85 123.767 224.017 129.45 224.243 134.932Z" fill="#F3ECD5"/>
</g>
<g style="mix-blend-mode:overlay" opacity="0.2">
<path d="M219.721 133.427C219.671 129.053 219.577 123.795 219.456 119.91C218.076 120.336 216.733 120.773 215.429 121.223C215.457 124.816 215.565 128.616 215.696 131.978C217.019 132.468 218.365 132.953 219.721 133.427Z" fill="#F3ECD5"/>
</g>
<g style="mix-blend-mode:overlay" opacity="0.2">
<path d="M211.388 122.75C210.074 123.281 208.787 123.879 207.533 124.539C207.511 125.932 207.514 127.324 207.559 128.711C208.807 129.253 210.138 129.811 211.523 130.364C211.496 127.859 211.451 125.245 211.388 122.75Z" fill="#F3ECD5"/>
</g>
<g style="mix-blend-mode:overlay" opacity="0.5">
<path d="M272.731 128.019C266.928 130.173 261.001 131.975 254.982 133.416C248.501 135.004 240.061 134.594 233.442 133.736C228.217 133.062 205.7 125.954 204.279 127.22C215.947 132.781 238.438 140.259 245.2 138.969C249.539 138.144 265.362 132.562 277.44 127.294C276.683 127.023 275.1 127.13 272.731 128.019Z" fill="#FBF8F0"/>
</g>
<g style="mix-blend-mode:overlay" opacity="0.3">
<path d="M242.827 139.107C242.827 139.273 242.824 139.451 242.824 139.619C245.646 146.024 250.388 156.28 251.849 159.243C256.546 168.778 254.52 167.094 260.475 175.912C261.614 177.591 264.465 176.581 263.853 174.487C260.833 164.138 262.609 169.122 257.69 159.567C256.158 156.592 250.641 145.759 247.005 138.435C246.413 138.612 245.812 138.792 245.2 138.969C244.42 139.131 243.62 139.178 242.827 139.107Z" fill="#F3ECD5"/>
</g>
<path d="M179.312 267.219C196.413 279.009 219.174 284.003 239.521 279.714C249.718 277.496 258.997 272.22 266.118 264.591C273.573 256.709 277.028 245.954 278.432 235.418C279.729 224.234 280.223 212.97 279.911 201.715C279.782 191.218 277.6 178.958 282.797 169.299C282.998 168.982 283.198 168.659 283.397 168.341C284.567 166.48 284.421 160.562 282.455 160.358C264.061 158.472 212.644 150.456 189.535 147.152C178.127 145.524 172.916 148.6 173.496 160.833C173.878 168.88 174.342 184.894 172.082 192.903C166.375 213.108 141.499 195.794 140.48 210.359C139.038 230.921 163.232 256.138 179.312 267.219Z" fill="#F2C76D"/>
<g style="mix-blend-mode:multiply" opacity="0.2">
<path d="M178.81 220.768C179.821 219.869 180.834 218.979 181.838 218.077C181.497 215.156 181.277 211.279 181.129 206.124C180.04 167.932 182.334 153.354 195.434 148.008C193.322 147.696 191.329 147.413 189.535 147.152C178.127 145.524 172.916 148.6 173.496 160.833C173.878 168.88 174.342 184.894 172.082 192.903C168.352 206.108 156.44 203.292 148.345 203.815C148.881 204.464 149.542 204.999 150.288 205.388C153.68 207.332 156.465 209.907 159.934 211.751C163.978 213.895 168.078 215.935 172.199 217.931C174.342 218.968 176.562 219.902 178.81 220.768Z" fill="#60233F"/>
</g>
<g style="mix-blend-mode:multiply" opacity="0.2">
<path d="M261.131 157.648C244.999 164.614 252.199 213.771 243.728 221.824C238.427 226.858 213.646 220.758 198.808 216.738C197.358 217.885 201.551 223.936 200.101 225.08C201.89 226.794 202.698 228.017 199.778 227.307C199.543 227.362 199.316 227.403 199.082 227.462C189.156 229.854 187.951 246.421 198.243 248.85C198.648 254.558 202.723 259.411 207.531 262.606C215.532 267.918 226.98 265.985 235.412 263.002C243.683 260.072 252.571 255.562 258.384 248.783C265.504 240.479 267.288 229.002 268.889 218.549C269.955 211.53 270.312 204.421 269.954 197.33C269.63 189.843 269.744 182.344 270.298 174.871C270.546 171.561 271.288 166.95 273.617 164.005C274.775 163.651 275.937 163.306 277.069 162.845C277.772 162.653 278.424 162.311 278.98 161.841C279.537 161.371 279.983 160.785 280.289 160.124C275.359 159.573 268.705 158.701 261.131 157.648Z" fill="#60233F"/>
</g>
<g style="mix-blend-mode:multiply" opacity="0.3">
<path d="M244.646 232.844C230.928 227.969 216.843 224.129 202.734 220.587C201.491 220.275 200.242 219.983 198.998 219.67C199.42 220.873 199.988 222.196 200.256 223.263C209.885 225.436 223.131 227.835 229.745 232.837C238.236 239.274 227.647 243.912 219.782 244.949C216.311 245.408 209.732 243.843 207.746 247.81C202.682 257.918 228.022 255.718 231.887 255.352C239.359 254.645 249.26 250.716 258.305 248.865C258.333 248.84 258.359 248.812 258.384 248.783C260.53 246.238 262.285 243.388 263.591 240.326C257.408 237.51 251.084 235.013 244.646 232.844Z" fill="#9F1726"/>
</g>
<g style="mix-blend-mode:multiply" opacity="0.2">
<path d="M260.015 238.712C254.947 236.52 249.726 234.649 244.646 232.844C232.629 228.572 220.325 225.099 207.972 221.918C207.839 222.274 207.701 222.62 207.572 222.993C207.572 222.993 253.31 235.641 260.772 242.453C262.204 243.76 261.767 242.018 260.015 238.712Z" fill="#60233F"/>
</g>
<path d="M210.224 294.381C205.4 288.657 204.901 282.675 205.869 276.144C207.07 268.022 208.8 257.979 209.923 251.112C210.825 245.629 208.564 238.098 201.984 237.133C191.594 235.616 181.297 235.197 171.058 233.515C160.516 231.714 150.125 229.12 139.973 225.755C129.908 222.489 121.127 218.117 111.443 214.595C107.362 213.063 102.926 212.743 98.6677 213.675C98.5543 212.792 98.2365 211.949 97.7397 211.211C97.2429 210.473 96.5807 209.861 95.8059 209.424C95.031 208.987 94.1649 208.736 93.2763 208.693C92.3877 208.649 91.5012 208.814 90.6874 209.173C77.9615 215.108 71.0664 228.379 70.8858 242.117C70.6799 257.49 77.9318 271.894 91.5279 277.977C120.664 291.017 171.138 306.11 198.971 311.295C203.591 312.165 216.762 302.138 210.224 294.381Z" fill="#E43F47"/>
<g style="mix-blend-mode:multiply" opacity="0.3">
<path d="M208.485 259.765C205.912 254.791 202.881 250.068 199.431 245.657C196.332 241.821 192.711 238.439 188.674 235.608C182.78 235.029 176.908 234.477 171.058 233.515C160.516 231.714 150.125 229.12 139.973 225.754C129.943 222.505 121.19 218.153 111.542 214.634C108.964 214.177 106.391 213.687 103.825 213.165C102.092 213.126 100.36 213.298 98.6677 213.675C98.6359 213.065 98.4782 212.468 98.2046 211.922C96.9194 211.615 95.6295 211.316 94.3477 210.982C92.7765 210.576 91.2042 210.148 89.6343 209.719C81.656 213.918 75.6622 221.102 72.9611 229.703C105.069 236.664 158.404 252.766 155.339 266.946C151.882 282.925 155.874 294.488 163.117 302.663C176.589 306.421 189.179 309.475 198.971 311.295C203.592 312.165 216.762 302.138 210.224 294.381C205.4 288.657 204.901 282.675 205.869 276.144C206.627 271.025 207.597 265.138 208.485 259.765Z" fill="#60233F"/>
</g>
<g style="mix-blend-mode:multiply" opacity="0.3">
<path d="M188.674 235.608C182.78 235.029 176.908 234.477 171.058 233.515C160.516 231.714 150.125 229.12 139.973 225.755C129.943 222.505 121.19 218.153 111.542 214.634C108.964 214.177 106.391 213.687 103.825 213.165C102.092 213.126 100.36 213.298 98.6677 213.675C98.6359 213.065 98.4782 212.468 98.2046 211.922C96.9194 211.615 95.6295 211.316 94.3477 210.982C94.3232 210.979 94.2991 210.974 94.2757 210.966C92.4804 210.659 90.6897 210.383 88.8864 210.124C82.9331 213.416 78.1267 218.447 75.1097 224.545C97.8079 229.722 184.658 255.612 207.842 263.666C208.06 262.349 208.272 261.04 208.485 259.765C205.912 254.791 202.881 250.068 199.431 245.657C196.332 241.821 192.711 238.439 188.674 235.608Z" fill="#60233F"/>
</g>
<path d="M201.435 220.625C195.624 213.518 208.402 211.261 197.083 209.888C188.198 208.809 170.126 204.495 161.232 202.336C130.101 194.79 115.007 190.546 96.127 182.996C82.5104 177.55 54.8484 174.002 53.4568 195.38C52.2321 214.193 73.7673 218.431 87.6457 222.151C114.063 229.226 156.515 241.96 179.623 247.619C185.424 249.039 183.856 248.41 194.745 243.382C203.096 239.52 208.084 228.753 201.435 220.625Z" fill="#E43F47"/>
<path d="M377.783 246.405C389.846 232.609 397 207.299 385.807 191.132C376.63 177.872 353.408 181.989 339.216 181.203C323.029 180.313 308.433 177.316 302.585 161.237C296.606 144.794 273.234 142.115 266.417 158.472C261.702 169.791 259.416 192.136 257.98 208.512C256.718 222.934 255.024 240.94 238.92 245.755C207.463 255.171 216.601 234.364 210.719 220.38C203.579 203.395 183.591 208.217 173.678 219.611C159.084 236.389 174.733 253.312 194.863 247.871C191.053 255.525 188.149 263.599 186.212 271.927C183.811 282.076 183.312 299.413 190.949 307.05C200.854 316.961 223.873 310.085 237.655 306.785C269.187 299.232 299.276 284.566 329.342 272.652C344.657 266.586 365.733 259.545 377.081 247.189C377.314 246.93 377.546 246.668 377.783 246.405Z" fill="#9F1726"/>
<path d="M288.272 178.255C287.436 176.806 286.092 175.718 284.5 175.205C283.528 174.941 282.509 174.905 281.522 175.099C280.534 175.294 279.605 175.714 278.807 176.326C278.008 176.939 277.362 177.727 276.918 178.631C276.474 179.534 276.244 180.527 276.247 181.534C276.25 182.54 276.485 183.532 276.935 184.433C277.384 185.334 278.035 186.118 278.837 186.726C279.639 187.334 280.571 187.749 281.559 187.937C282.548 188.126 283.567 188.084 284.536 187.815C285.916 187.474 287.138 186.671 287.999 185.54C288.86 184.409 289.308 183.018 289.27 181.597C289.245 180.413 288.9 179.259 288.272 178.255Z" fill="#FAC5AB"/>
<g style="mix-blend-mode:multiply" opacity="0.3">
<path d="M345.459 182.148C345.253 181.855 345.029 181.588 344.813 181.315C342.842 181.323 340.963 181.299 339.216 181.203C323.029 180.313 308.433 177.316 302.585 161.237C296.606 144.794 273.234 142.115 266.417 158.472C261.702 169.791 259.416 192.136 257.98 208.512C256.718 222.934 255.024 240.94 238.92 245.755C207.463 255.171 216.601 234.364 210.719 220.38C203.579 203.395 183.591 208.217 173.678 219.611C160.141 235.167 172.621 250.835 190.557 248.694C190.307 248.543 190.035 248.429 189.752 248.358C180.419 245.995 172.529 239.77 174.56 230.211C176.263 222.181 186.701 213.915 196.702 214.882C203.862 215.572 207.165 222.426 207.65 236.536C208.021 247.335 209.11 254.299 224.298 255.941C235.949 257.199 247.179 251.244 254.391 243.594C263.887 233.515 264.004 221.844 265.917 208.999C267.105 200.976 271.087 187.968 278.858 183.785C294.066 175.6 302.878 197.192 305.766 207.613C311.628 228.72 314.914 250.398 302.809 270.167C295.977 281.32 283.114 287.615 271.397 291.521C251.522 298.159 223.495 308.205 194.695 309.744C205.843 315.47 225.398 309.719 237.655 306.785C269.187 299.232 299.276 284.566 329.342 272.652C336.965 269.636 346.018 266.377 354.584 262.336C356.076 259.113 357.305 255.776 358.259 252.355C361.509 240.813 360.517 227.982 358.589 216.342C356.621 204.445 352.301 192.126 345.459 182.148Z" fill="#60233F"/>
</g>
<path d="M303.909 246.976C302.354 244.636 295.582 242.249 290.441 239.541C290.366 239.503 300.952 233.193 303.367 227.161C303.557 226.665 303.588 226.123 303.458 225.609C303.327 225.095 303.041 224.634 302.638 224.288C302.235 223.943 301.735 223.731 301.207 223.681C300.679 223.631 300.148 223.746 299.687 224.01C295.338 226.507 291.779 232.388 288.44 235.879C288.446 234.502 289.666 218.744 287.059 216.388C286.811 216.182 286.52 216.033 286.207 215.954C285.894 215.875 285.567 215.867 285.251 215.93C284.935 215.994 284.637 216.128 284.379 216.322C284.121 216.516 283.91 216.765 283.761 217.051C282.07 222.508 284.04 230.795 284.269 236.542C281.392 235.252 274.978 230.991 272.021 229.971C269.255 229.017 267.67 232.651 269.561 234.483C272.973 237.791 279.938 239.541 283.602 240.377C281.426 242.039 263.599 251.05 268.207 254.917C270.79 257.076 285.632 245.087 285.607 242.712C284.269 247.88 282.858 257.416 284.305 262.453C284.978 264.798 289.571 265.045 290.185 262.553C291.393 257.657 289.327 247.708 288.941 242.21C292.467 244.461 297.91 250.928 300.699 251.335C301.254 251.436 301.826 251.378 302.35 251.17C302.874 250.961 303.328 250.61 303.663 250.156C303.997 249.702 304.197 249.164 304.241 248.602C304.284 248.04 304.169 247.477 303.909 246.976Z" fill="#FAC5AB"/>
<path d="M196.815 226.105C195.42 224.701 193.531 223.899 191.553 223.87C184.73 223.87 181.556 231.023 186.393 235.892C189.07 238.586 195.584 238.428 197.896 234.483C198.659 233.161 198.966 231.625 198.771 230.111C198.576 228.597 197.889 227.189 196.815 226.105Z" fill="#FAC5AB"/>
<path d="M210.122 268.259C211.128 271.422 213.896 273.771 216.355 275.945C214.332 278.222 212.798 280.89 211.847 283.783C211.656 284.298 211.645 284.862 211.815 285.384C211.985 285.906 212.327 286.356 212.785 286.659C213.242 286.963 213.789 287.102 214.337 287.056C214.884 287.009 215.399 286.779 215.799 286.403C217.687 284.469 219.359 282.336 220.785 280.041C222.685 281.853 224.982 283.197 227.493 283.966C228.801 284.301 229.576 282.63 228.747 281.516C227.212 279.463 225.505 277.578 223.791 275.706C225.919 272.858 228.197 269.808 228.598 266.01C228.621 265.764 228.577 265.517 228.469 265.294C228.362 265.072 228.196 264.883 227.99 264.748C227.783 264.614 227.544 264.537 227.297 264.529C227.05 264.52 226.806 264.578 226.59 264.698C223.997 266.096 221.901 268.827 219.951 271.401C217.724 268.735 215.393 265.73 212.126 265.26C210.83 265.076 209.69 266.926 210.122 268.259Z" fill="#FAC5AB"/>
<path d="M257.974 281.217C257.974 279.791 257.408 278.424 256.4 277.417C255.392 276.409 254.025 275.842 252.6 275.842C251.175 275.842 249.808 276.409 248.8 277.417C247.792 278.424 247.226 279.791 247.226 281.217C247.223 282.17 247.478 283.106 247.963 283.927C248.306 284.532 248.766 285.062 249.317 285.487C249.868 285.911 250.498 286.22 251.171 286.397C251.312 286.422 251.446 286.452 251.585 286.491C252.335 286.687 253.12 286.709 253.881 286.557C254.641 286.405 255.357 286.082 255.974 285.612C256.592 285.142 257.094 284.538 257.443 283.845C257.792 283.152 257.979 282.389 257.989 281.614C257.989 281.476 257.987 281.346 257.974 281.217Z" fill="#FAC5AB"/>
<g style="mix-blend-mode:overlay">
<path d="M154.366 208.233C148.384 206.645 125.979 201.259 95.1002 191.566C84.2027 188.141 73.5363 184.469 62.5041 181.498C62.4103 181.473 62.3085 181.444 62.2181 181.421C59.4643 182.971 57.1428 185.187 55.4659 187.865C54.266 190.198 53.5809 192.76 53.4568 195.38C53.3634 196.789 53.4094 198.203 53.594 199.602C67.1295 206.079 148.939 231.648 160.53 227.048C165.915 224.904 168.272 220.206 165.724 215.693C163.612 211.963 159.798 209.673 154.366 208.233Z" fill="#FAC5AB"/>
</g>
<g style="mix-blend-mode:overlay">
<path d="M154.366 208.233C148.384 206.645 125.979 201.259 95.1001 191.566C84.2027 188.141 73.5363 184.469 62.504 181.498C62.4102 181.473 62.3085 181.444 62.2181 181.421C60.3289 182.443 58.6545 183.82 57.2863 185.475C62.2787 187.977 68.3152 189.342 72.633 190.59C84.1616 193.928 95.7153 197.189 107.294 200.374C120.703 204.057 134.255 207.478 147.919 210.089C152.965 211.048 158.178 212.024 163.441 212.808C160.85 210.543 157.728 208.969 154.366 208.233Z" fill="#FAC5AB"/>
</g>
<g style="mix-blend-mode:multiply" opacity="0.2">
<path d="M196.868 166.47C196.238 166.502 195.621 166.662 195.054 166.938C194.486 167.214 193.98 167.601 193.565 168.076C193.06 167.387 192.404 166.823 191.648 166.427C190.858 166.061 189.658 166.47 189.739 167.523C189.875 168.545 190.272 169.516 190.892 170.34C189.927 171.127 189.617 171.554 188.686 172.378C188.462 172.612 188.32 172.912 188.282 173.234C188.243 173.555 188.31 173.881 188.473 174.161C188.636 174.441 188.885 174.66 189.183 174.786C189.482 174.912 189.813 174.938 190.127 174.859C191.115 174.534 192.028 174.017 192.815 173.337C193.2 174.016 193.64 174.663 194.129 175.271C194.341 175.482 194.604 175.634 194.894 175.711C195.183 175.787 195.487 175.786 195.776 175.708C195.921 175.679 196.058 175.619 196.179 175.534C196.492 175.336 196.734 175.046 196.874 174.704C197.013 174.361 197.042 173.984 196.956 173.624C196.732 172.702 196.324 171.834 195.757 171.072C196.853 170.391 197.695 169.37 198.155 168.165C198.205 167.967 198.21 167.76 198.169 167.56C198.128 167.36 198.042 167.171 197.919 167.008C197.795 166.846 197.636 166.713 197.455 166.619C197.273 166.526 197.072 166.475 196.868 166.47Z" fill="#60233F"/>
</g>
<g style="mix-blend-mode:multiply" opacity="0.2">
<path d="M203.831 190.479C202.661 190.76 201.563 191.286 200.611 192.023C199.89 190.971 198.985 190.057 197.94 189.324C197.819 189.241 197.678 189.19 197.531 189.177C197.384 189.163 197.236 189.188 197.102 189.249C196.967 189.31 196.851 189.404 196.763 189.523C196.676 189.642 196.621 189.782 196.604 189.928C196.579 191.329 197.039 192.695 197.905 193.795C196.748 194.574 195.745 195.558 194.944 196.699C194.535 197.313 194.825 198.477 195.725 198.449C197.185 198.213 198.553 197.581 199.679 196.623C200.176 197.392 200.662 198.166 201.088 198.984C201.989 200.704 205.047 199.995 204.5 197.934C204.162 196.805 203.597 195.758 202.839 194.856C203.69 194.443 204.436 193.841 205.022 193.098C205.932 192.166 205.436 190.026 203.831 190.479Z" fill="#60233F"/>
</g>
<g style="mix-blend-mode:multiply" opacity="0.2">
<path d="M218.269 179.179C218.239 179.39 218.257 179.605 218.322 179.807C218.387 180.01 218.497 180.195 218.643 180.349C218.79 180.504 218.969 180.623 219.168 180.698C219.367 180.773 219.58 180.803 219.792 180.784C220.769 180.67 221.68 180.233 222.379 179.541C222.588 179.392 222.801 179.259 223.01 179.115C223.893 180.268 225.756 182.635 226.851 181.375C227.816 180.268 226.638 178.427 225.831 177.222C227.148 176.291 228.397 175.708 229.058 174.363C229.115 174.234 229.141 174.093 229.136 173.953C229.13 173.812 229.093 173.674 229.026 173.549C228.96 173.425 228.866 173.317 228.752 173.234C228.638 173.151 228.506 173.096 228.367 173.071C226.806 172.687 225.346 173.516 224.014 174.425C223.873 174.187 223.719 173.96 223.581 173.723C223.144 172.738 222.453 171.888 221.58 171.258C221.365 171.163 221.132 171.118 220.897 171.126C220.662 171.135 220.433 171.197 220.226 171.308C220.019 171.419 219.84 171.576 219.703 171.766C219.565 171.957 219.474 172.176 219.434 172.408C219.37 173.819 219.845 175.203 220.764 176.276C220.169 176.56 219.64 176.964 219.21 177.464C218.78 177.964 218.46 178.548 218.269 179.179Z" fill="#60233F"/>
</g>
<g style="mix-blend-mode:multiply" opacity="0.2">
<path d="M238.771 198.317C238.835 198.073 238.834 197.818 238.769 197.575C238.703 197.332 238.575 197.11 238.397 196.932C238.22 196.754 237.998 196.626 237.755 196.56C237.512 196.495 237.256 196.494 237.013 196.558C236.041 196.921 235.163 197.498 234.443 198.245C233.862 197.58 233.189 197.003 232.444 196.531C231.118 195.762 229.966 197.237 230.509 198.465C230.889 199.253 231.367 199.988 231.931 200.655C231.143 201.292 230.476 202.068 229.966 202.944C229.472 203.828 230.296 205.2 231.377 204.784C232.332 204.487 233.213 203.989 233.96 203.323C234.347 203.856 234.722 204.393 235.093 204.94C235.35 205.347 235.755 205.639 236.223 205.753C236.691 205.868 237.185 205.796 237.601 205.554C238.017 205.311 238.322 204.916 238.453 204.453C238.583 203.989 238.529 203.493 238.301 203.069C237.914 202.289 237.433 201.559 236.869 200.895C237.721 200.221 238.378 199.33 238.771 198.317Z" fill="#60233F"/>
</g>
<g style="mix-blend-mode:overlay" opacity="0.7">
<path d="M247.554 160.382C239.912 158.37 205.092 152.529 197.675 151.865C191.492 151.31 199.107 159.992 200.837 161.838C209.613 171.184 213.006 164.336 221.519 161.838C228.679 159.743 232.469 163.788 239.087 171.291C244.044 176.907 252.171 161.598 247.554 160.382Z" fill="#FBF8F0"/>
</g>
<path d="M412.442 271.01C412.328 270.494 412.156 269.993 411.927 269.517C411.362 268.366 409.912 268.898 409.521 269.834C408.268 272.833 408.753 276.877 407.952 280.117C407.089 284.261 404.747 287.949 401.364 290.494C401.137 290.633 400.962 290.841 400.865 291.088C400.767 291.334 400.752 291.606 400.823 291.862C400.893 292.118 401.044 292.344 401.254 292.506C401.464 292.668 401.721 292.758 401.987 292.761C405.992 304.409 411.292 315.569 417.786 326.034C419.412 328.758 424.166 334.72 426.2 328.669C427.998 323.329 418.024 288.739 412.442 271.01Z" fill="#DB282D"/>
<g style="mix-blend-mode:multiply" opacity="0.3">
<path d="M411.927 269.517C411.362 268.366 409.912 268.898 409.521 269.834C408.268 272.833 408.753 276.877 407.952 280.117C407.089 284.261 404.747 287.949 401.364 290.494C401.137 290.633 400.962 290.841 400.865 291.088C400.767 291.334 400.752 291.606 400.823 291.862C400.893 292.118 401.044 292.344 401.254 292.506C401.464 292.668 401.721 292.758 401.987 292.761C403.2 296.261 404.429 299.513 405.759 302.705C410.34 296.224 415.845 307.684 417.894 312.212C420.614 318.231 422.728 324.503 425.077 330.674C425.602 330.102 425.987 329.416 426.2 328.669C427.998 323.329 418.024 288.739 412.442 271.01C412.328 270.494 412.156 269.993 411.927 269.517Z" fill="#60233F"/>
</g>
<path d="M376.942 318.94C373.4 306.321 369.682 291.684 362.443 280.595C362.31 280.393 362.118 280.237 361.893 280.149C360.175 277.644 357.638 275.329 354.876 275.144C349.914 274.818 348.809 282.811 350.134 286.072C350.177 286.182 350.247 286.279 350.338 286.354C350.429 286.429 350.538 286.479 350.655 286.499C352.125 298.525 369.598 337.792 375.285 338.591C382.336 339.586 377.799 321.996 376.942 318.94Z" fill="#DB282D"/>
<g style="mix-blend-mode:multiply" opacity="0.3">
<path d="M376.942 318.94C373.4 306.321 369.682 291.684 362.443 280.595C362.31 280.393 362.118 280.237 361.893 280.149C360.175 277.644 357.638 275.329 354.876 275.144C349.914 274.818 348.809 282.811 350.134 286.072C350.177 286.182 350.247 286.279 350.338 286.354C350.429 286.429 350.538 286.479 350.655 286.499C351.577 291.517 352.999 296.431 354.898 301.166C356.936 299.156 359.78 299.53 362.673 302.101C366.126 305.176 367.924 310.02 369.758 314.126C373.046 321.715 375.825 329.514 378.078 337.472C380.796 333.642 377.639 321.439 376.942 318.94Z" fill="#60233F"/>
</g>
<path d="M402.714 244.145C402.62 243.708 402.373 243.319 402.016 243.049C401.659 242.779 401.218 242.646 400.771 242.675C400.537 242.505 400.314 242.335 400.087 242.173C398.368 240.94 396.337 243.665 397.851 245.073C397.931 245.147 398.014 245.224 398.093 245.297C395.958 248.09 393.364 250.499 390.42 252.422C385.888 255.191 380.233 256.345 375.021 256.898C370.351 257.303 365.652 257.24 360.994 256.711C357.881 256.419 354.796 255.875 351.704 255.367C349.953 255.081 347.67 255.049 346.099 254.233C343.348 252.797 342.922 256.479 344.266 257.503C338.122 270.707 335.757 287.136 339.038 301.272C339.081 301.425 339.158 301.566 339.263 301.684C339.369 301.803 339.5 301.896 339.647 301.956C339.794 302.016 339.952 302.042 340.11 302.031C340.269 302.021 340.422 301.974 340.56 301.896C348.077 297.749 354.247 290.54 358.686 282.716C358.687 282.778 358.696 282.84 358.712 282.9C360.477 292.509 370.16 304.921 372.794 303.379C377.632 300.547 387.07 286.94 388.312 284.579C391.95 290.039 397.995 299.627 404.818 299.535C408.697 299.485 413.327 283.64 413.935 280.522C417.411 284.933 420.183 289.878 424.4 293.674C425.098 294.302 426.518 294.072 426.421 293.145C424.314 272.7 416.639 255.075 402.714 244.145Z" fill="#314B22"/>
<g style="mix-blend-mode:overlay" opacity="0.5">
<path d="M402.714 244.145C402.62 243.708 402.373 243.319 402.016 243.049C401.659 242.779 401.218 242.646 400.771 242.675C400.584 242.536 400.396 242.4 400.211 242.265C399.421 242.336 398.62 242.437 397.816 242.567C397.493 242.906 397.316 243.358 397.322 243.827C397.329 244.295 397.518 244.742 397.851 245.073C397.931 245.147 398.014 245.223 398.093 245.297C395.958 248.09 393.364 250.499 390.42 252.422C385.888 255.191 380.233 256.345 375.021 256.898C370.351 257.303 365.652 257.24 360.994 256.711C360.693 256.683 360.396 256.648 360.092 256.613C357.194 257.806 354.163 258.647 351.064 259.118C348.647 259.273 346.221 259.012 343.892 258.345C343.215 259.862 342.58 261.414 342.003 263.002C348.205 267.631 358.229 271.015 371.075 272.298C380.806 273.277 393.918 273.142 398.649 273.277C404.703 273.442 406.555 287.969 406.029 299.045C409.601 296.359 413.392 283.319 413.935 280.522C417.411 284.933 420.183 289.878 424.4 293.674C425.098 294.302 426.518 294.072 426.421 293.145C424.314 272.7 416.639 255.075 402.714 244.145Z" fill="#60233F"/>
</g>
<path d="M412.988 171.42C407.111 163.893 398.418 157.772 388.762 156.632C378.066 155.372 368.252 159.951 359.695 165.978C351.503 171.758 344.471 179.019 337.308 185.985C336.996 186.307 336.773 186.704 336.66 187.137C336.547 187.571 336.548 188.026 336.663 188.459C336.777 188.892 337.002 189.288 337.314 189.609C337.627 189.929 338.017 190.164 338.447 190.289C338.687 190.35 342.36 189.81 342.6 189.875C337.795 210.143 328.881 230.901 319.314 249.516C319.103 249.895 319.046 250.34 319.156 250.759C319.266 251.179 319.533 251.539 319.903 251.765C353.354 272.864 417.114 276.903 428.11 228.21C432.408 209.188 424.695 186.386 412.988 171.42Z" fill="#9FC151"/>
<g style="mix-blend-mode:overlay" opacity="0.5">
<path d="M429.271 219.206C423.592 228.873 417.721 238.299 409.238 245.924C397.901 256.111 381.956 258.604 367.249 257.805C351.176 256.932 336.39 250.944 322.203 243.774C321.713 244.766 321.222 245.751 320.73 246.729C324.217 248.592 327.76 250.343 331.338 252.011C343.094 257.569 355.81 260.812 368.793 261.563C382.911 262.33 398.45 259.358 409.766 250.437C416.963 244.621 423.06 237.563 427.769 229.598C427.883 229.136 428.002 228.683 428.11 228.21C428.768 225.25 429.157 222.236 429.271 219.206Z" fill="#FFFFA1"/>
</g>
<g style="mix-blend-mode:overlay" opacity="0.5">
<path d="M428.11 228.21C428.206 227.781 428.289 227.347 428.377 226.913C428.225 226.803 428.08 226.684 427.928 226.582C428.213 223.334 428.055 220.063 427.458 216.857C426.661 212.387 422.584 209.067 418.095 207.991C418.129 203.221 417.108 198.504 415.104 194.176C414.438 192.834 413.494 191.65 412.334 190.703C411.173 189.756 409.824 189.069 408.375 188.686C408.645 183.912 407.136 179.516 402.599 176.858C400.995 175.943 399.206 175.401 397.364 175.271C393.987 168.069 383.412 165.968 378.209 173.086C377.947 172.991 377.687 172.899 377.427 172.831C373.38 171.717 370.146 173.16 367.02 175.582C366.586 175.918 366.176 176.282 365.771 176.637C363.951 175.587 361.849 175.13 359.757 175.329C357.665 175.528 355.686 176.373 354.097 177.748C340.152 175.592 336.623 201.747 344.375 204.076C350.97 206.062 366.707 204.668 375.459 208.517C384.809 212.627 390.144 223.999 394.23 233.807C395.486 236.831 401.432 261.365 397.254 262.834C412.121 257.605 423.931 246.724 428.11 228.21Z" fill="#60233F"/>
</g>
<g style="mix-blend-mode:multiply" opacity="0.4">
<path d="M428.377 226.913C428.225 226.803 428.08 226.684 427.928 226.582C428.148 224.165 428.113 221.731 427.824 219.32C425.347 217.534 423.016 215.556 420.851 213.403C414.048 206.725 409.944 198.168 404.231 190.661C402.877 188.865 401.391 187.174 399.784 185.6C399.853 185.53 399.933 185.479 400.002 185.413C402.118 183.488 403.719 181.065 404.659 178.363C404.024 177.794 403.334 177.29 402.599 176.858C400.995 175.943 399.206 175.401 397.364 175.271C396.691 173.875 395.745 172.629 394.582 171.606C393.418 170.583 392.06 169.804 390.59 169.316C389.119 168.828 387.566 168.64 386.021 168.764C384.477 168.888 382.973 169.322 381.6 170.038C381.596 170.074 381.589 170.11 381.579 170.145C381.38 170.537 381.174 170.922 380.964 171.305C380.109 172.872 379.278 174.452 378.397 175.995C378.284 176.207 378.185 176.418 378.094 176.633C372.724 176.688 367.29 178.159 362.141 179.438C359.079 180.196 355.946 180.716 352.913 181.58C350.523 182.258 347.967 183.498 345.498 184.186C344.621 186.055 344.012 188.039 343.689 190.079C345.676 191.219 347.733 192.234 349.847 193.117C352.711 194.104 356.491 193.686 359.398 193.217C365 192.318 370.51 190.802 376.182 190.41C385.68 189.754 390.615 195.376 395.376 202.856C400.556 210.996 405.123 219.224 411.884 226.237C415.519 229.87 419.619 233.006 424.077 235.563C424.555 235.848 425.047 236.134 425.544 236.427C426.618 233.761 427.477 231.013 428.11 228.21C428.206 227.781 428.289 227.347 428.377 226.913Z" fill="#38725B"/>
</g>
<path d="M448.242 115.883C443.811 98.7251 434.621 82.7495 421.602 71.6829C414.959 65.8533 406.949 61.7986 398.317 59.8959C389.426 58.048 380.932 59.6877 372.343 62.0182C371.937 62.1279 372.111 62.71 372.518 62.638C374.22 62.3292 375.955 62.0708 377.703 61.8719C377.49 62.1799 377.367 62.5403 377.345 62.9138C377.324 63.2872 377.406 63.6594 377.581 63.9896C386.654 81.3294 391.265 100.627 392.28 120.1C393.039 134.632 394.752 150.56 388.027 163.8C387.932 163.816 387.846 163.867 387.787 163.944C387.729 164.02 387.701 164.116 387.71 164.212C387.718 164.266 387.721 164.323 387.725 164.378C387.183 165.41 386.587 166.42 385.929 167.419C385.327 168.329 386.539 169.594 387.459 168.948C387.721 168.761 387.965 168.559 388.21 168.361C390.329 181.746 395.442 194.481 403.168 205.614C406.875 210.941 411.031 215.942 415.588 220.562C419.708 225.074 424.18 229.251 428.963 233.053C429.03 233.614 429.296 234.133 429.712 234.515C430.128 234.898 430.666 235.119 431.231 235.139C431.709 235.265 432.142 235.524 432.48 235.885C432.818 236.246 433.047 236.695 433.141 237.18C433.366 237.557 433.685 237.869 434.067 238.085C434.449 238.302 434.88 238.416 435.319 238.416C435.758 238.416 436.19 238.302 436.571 238.085C436.953 237.869 437.272 237.557 437.498 237.18C449.073 213.98 455.738 194.116 446.611 170.189C446.611 170.189 449.454 158.199 450.553 152.593C453.033 139.908 451.59 128.834 448.242 115.883Z" fill="#809F47"/>
<g style="mix-blend-mode:multiply" opacity="0.2">
<path d="M434.984 165.566C439.156 166.564 443.131 168.253 446.744 170.564C446.699 170.437 446.659 170.314 446.611 170.189C446.611 170.189 449.454 158.199 450.553 152.593C453.033 139.908 451.59 128.834 448.242 115.883C443.811 98.7251 434.621 82.7495 421.602 71.6829C414.959 65.8533 406.949 61.7986 398.317 59.8959C391.726 58.6901 384.953 58.9014 378.449 60.5157C389.739 75.3482 395.363 93.7242 394.307 112.335C394.045 115.499 393.393 118.619 392.367 121.624C393.149 135.741 394.522 151.022 388.027 163.8C387.932 163.816 387.846 163.867 387.787 163.944C387.729 164.02 387.701 164.116 387.71 164.212C387.718 164.266 387.721 164.323 387.725 164.378C387.183 165.41 386.588 166.42 385.929 167.419C385.327 168.329 386.539 169.594 387.459 168.948C387.721 168.761 387.965 168.559 388.21 168.361C388.492 170.316 388.86 172.254 389.292 174.182C395.767 175.598 403.341 172.493 409.679 169.14C417.461 165.102 426.388 163.841 434.984 165.566Z" fill="#38725B"/>
</g>
<g style="mix-blend-mode:overlay" opacity="0.5">
<path d="M413.212 218.038C413.983 218.87 414.76 219.695 415.543 220.515C420.639 214.518 427.435 210.208 435.032 208.155C439.573 206.919 444.371 207.002 448.866 208.395C449.23 206.904 449.553 205.407 449.828 203.913C436.087 201.556 420.844 206.551 413.212 218.038Z" fill="#F3ECD5"/>
</g>
<g style="mix-blend-mode:overlay" opacity="0.5">
<path d="M450.682 187.728C450.512 185.649 450.232 183.581 449.843 181.532C444.007 180.791 438.085 181.121 432.368 182.505C421.298 185.214 408.31 192.408 401.178 202.557C401.826 203.589 402.477 204.608 403.168 205.614C403.358 205.898 403.561 206.183 403.759 206.463C410.85 197.452 421.304 191.213 432.356 188.284C438.347 186.734 444.608 186.544 450.682 187.728Z" fill="#F3ECD5"/>
</g>
<g style="mix-blend-mode:overlay" opacity="0.3">
<path d="M427.424 216.738C428.737 215.24 429.728 213.488 430.336 211.59C433.785 202.108 427.985 189.735 418.927 185.774C414.86 183.989 406.15 180.704 401.838 182.931C394.348 186.81 403.774 198.336 406.732 202.692C410.882 208.812 420.791 223.646 427.424 216.738Z" fill="#F3ECD5"/>
</g>
<g style="mix-blend-mode:overlay" opacity="0.5">
<path d="M423.691 130.023C426.929 117.443 422.495 100.392 418.357 89.089C413.189 74.9692 396.353 55.3243 379.914 60.3785C375.194 61.833 383.287 69.524 385 70.2718C388.193 71.6532 390.455 71.1546 393.372 73.7183C395.884 75.9287 397.475 79.1018 399.41 81.7856C404.465 88.7068 408.321 96.4279 410.818 104.627C414.048 115.954 414.106 128.404 412.276 139.977C411.399 145.486 410.283 151.399 407.395 156.174C406.877 157.024 392.076 171.518 393.336 171.733C401.195 173.059 414.786 160.208 416.652 153.81C424.51 150.958 432.226 145.296 434.416 133.615C434.78 131.663 425.919 130.373 423.691 130.023Z" fill="#60233F"/>
</g>
<path d="M415.699 101.057C413.146 88.9311 403.941 71.2335 392.401 62.4458C385.702 57.3391 377.799 57.4087 370.981 57.2705C365.661 57.1584 357.569 59.9039 356.351 65.7986C356.195 66.3927 356.277 67.0247 356.58 67.559C356.884 68.0933 357.385 68.4875 357.975 68.6572C362.628 69.3879 367.299 67.125 372.111 67.8522C377.359 68.8164 382.219 71.2676 386.114 74.9143C394.562 82.379 399.09 92.9825 400.396 104.046C401.808 115.952 399.962 127.997 397.396 139.61C396.353 144.506 394.172 149.088 391.029 152.985C387.506 157.275 382.508 160.102 379.326 164.632C375.823 169.62 381.589 176.393 387.067 174.703C393.158 172.822 405.091 171.475 414.743 145.736C419.528 132.969 418.845 115.991 415.699 101.057Z" fill="#DB282D"/>
<path d="M427.003 134.269C415.707 130.764 402.964 132.558 391.884 136.04C391.193 133.053 391.263 129.939 392.088 126.985C393.398 122.993 394.4 118.907 395.083 114.761C395.577 111.051 392.584 98.5204 391.77 94.8704C391.228 92.4199 373.716 97.6696 363.695 94.3284C362.881 92.4199 373.351 86.5276 376.362 83.5499C377.291 82.6272 377.281 82.0051 375.962 82.3321C370.51 83.6963 362.334 82.3321 350.884 81.5146C346.36 81.1921 337.473 79.6426 337.255 79.8816C326.933 91.0661 320.053 108.154 317.219 122.919C314.713 135.983 311.856 154.169 318.814 166.366C324.717 176.728 339.571 173.908 348.839 171.184C361.418 167.356 373.045 160.909 382.956 152.268C389.389 155.757 397.668 155.54 404.845 153.717C413.94 151.404 425.637 145.887 427.883 135.826C427.966 135.503 427.921 135.161 427.757 134.87C427.593 134.58 427.322 134.364 427.003 134.269Z" fill="#FFC590"/>
<g style="mix-blend-mode:overlay" opacity="0.5">
<path d="M326.572 100.379C329.89 93.1764 333.946 86.3383 338.677 79.9742C338.209 79.8779 337.731 79.8467 337.255 79.8816C326.933 91.0661 320.053 108.154 317.219 122.919C314.713 135.983 311.856 154.169 318.814 166.366C319.536 167.643 320.461 168.795 321.552 169.777C321.027 168.714 320.517 167.655 320.072 166.56C318.257 162.112 317.186 157.397 316.901 152.601C316.423 143.662 317.015 134.698 318.665 125.899C320.322 117.119 322.975 108.557 326.572 100.379Z" fill="#FBF8F0"/>
</g>
<g style="mix-blend-mode:multiply" opacity="0.2">
<path d="M427.003 134.269C415.707 130.764 402.964 132.558 391.884 136.04C391.193 133.053 391.263 129.939 392.088 126.985C393.398 122.993 394.4 118.907 395.084 114.761C395.577 111.051 392.584 98.5204 391.77 94.8704C391.228 92.4199 373.716 97.6696 363.695 94.3284C362.881 92.4199 373.351 86.5276 376.362 83.5499C377.291 82.6272 377.281 82.0051 375.962 82.3321C370.51 83.6963 362.334 82.3321 350.884 81.5146C346.36 81.1921 337.473 79.6426 337.255 79.8816C336.373 80.8399 335.517 81.8553 334.685 82.8936C340.453 85.2846 347.146 85.4607 353.369 86.0347C356.668 86.3332 360.279 86.523 363.972 86.4978C361.153 87.6852 358.405 89.0341 355.741 90.5378C355.386 90.7548 355.085 91.0487 354.859 91.3977C354.633 91.7467 354.488 92.1419 354.434 92.5544C354.381 92.9668 354.422 93.3859 354.552 93.7808C354.682 94.1757 354.899 94.5363 355.187 94.8361C360.61 101.205 370.201 101.716 377.927 101.137C380.84 100.934 383.74 100.57 386.613 100.046C387.617 109.194 387.919 118.31 385.359 127.334C382.743 136.592 376.952 144.686 370.15 151.336C358.173 163.044 340.182 173.165 323.044 170.93C330.155 175.655 341.331 173.392 348.839 171.184C361.418 167.356 373.045 160.909 382.956 152.268C389.389 155.757 397.668 155.54 404.845 153.717C413.94 151.404 425.637 145.887 427.883 135.826C427.966 135.503 427.921 135.161 427.757 134.87C427.593 134.58 427.322 134.364 427.003 134.269Z" fill="#60233F"/>
</g>
<path d="M390.475 95.0557C390.267 95.2123 390.678 95.839 390.83 96.1443C395.328 105.264 393.066 114.615 391.436 124.213C390.741 128.302 389.95 132.537 391.128 136.239C391.343 136.149 391.569 136.087 391.799 136.054C396.573 134.529 401.477 133.45 406.45 132.828C406.761 129.097 406.818 125.348 406.62 121.609C406.282 115.091 405.38 108.616 403.925 102.254C401.418 90.6338 396.829 79.0034 388.631 70.2078C370.575 50.8635 336.477 58.8393 321.185 77.7456C321.171 77.7559 321.169 77.773 321.161 77.7845C321.069 77.8497 320.998 77.9391 320.955 78.0426C320.911 78.1462 320.898 78.2598 320.915 78.3707C320.933 78.4816 320.981 78.5853 321.055 78.6702C321.128 78.7551 321.224 78.8179 321.331 78.8513C326.159 79.6129 330.757 81.1475 335.546 82.0543C340.276 82.9531 345.093 83.5203 349.87 84.0439C357.776 84.9108 366.603 85.5008 374.709 83.9844C370.158 86.8729 365.895 90.2325 360.762 92.1215C360.492 92.2038 360.256 92.3705 360.088 92.5972C359.92 92.8238 359.83 93.0984 359.83 93.3805C359.83 93.6625 359.92 93.9371 360.088 94.1638C360.256 94.3904 360.492 94.5571 360.762 94.6394C366.09 96.1334 371.617 96.79 377.147 96.5857C380.983 96.5536 386.308 96.4485 390.475 95.0557Z" fill="#A87C4F"/>
<g style="mix-blend-mode:multiply" opacity="0.4">
<path d="M438.044 236.069C449.281 213.344 455.597 193.735 446.611 170.189C446.611 170.189 449.454 158.199 450.553 152.593C453.033 139.908 451.59 128.834 448.242 115.883C444.095 99.8354 435.789 84.8215 424.079 73.8921C424 73.8166 423.915 73.7457 423.836 73.6714C423.832 73.6656 423.826 73.6622 423.824 73.6553C423.812 73.7763 423.847 73.8972 423.922 73.9927C436.533 91.3302 446.64 109.635 445.991 130.111C445.252 153.485 438.878 163.626 411.95 175.95C409.361 177.139 409.821 179.15 412.597 178.223C424.277 174.326 433.685 175.625 438.878 179.521C444.983 184.103 447.078 190.278 446.828 197.73C446.538 206.49 441.462 210.312 434.374 214.584C428.224 218.292 424.021 225.008 427.433 231.862C427.94 232.264 428.45 232.669 428.963 233.053C429.03 233.614 429.296 234.133 429.712 234.515C430.128 234.898 430.667 235.119 431.231 235.139C431.69 235.264 432.107 235.51 432.438 235.852C432.768 236.194 433.001 236.618 433.111 237.081C434.824 237.339 436.572 236.981 438.044 236.069Z" fill="#38725B"/>
</g>
<path d="M459.171 223.263C455.213 219.305 450.005 216.843 444.435 216.294C438.865 215.746 433.277 217.146 428.623 220.256C423.969 223.365 420.537 227.993 418.912 233.349C417.288 238.705 417.57 244.459 419.712 249.63C421.854 254.801 425.723 259.07 430.659 261.708C435.595 264.347 441.294 265.193 446.783 264.101C452.273 263.009 457.214 260.048 460.766 255.722C464.317 251.395 466.258 245.971 466.258 240.374C466.25 233.958 463.702 227.806 459.171 223.263Z" fill="#D9292A"/>
<g style="mix-blend-mode:overlay">
<path d="M448.569 235.618C448.092 233.304 447.033 231.15 445.494 229.358C443.954 227.566 441.984 226.195 439.768 225.375C438.145 224.863 436.426 224.731 434.744 224.988C433.061 225.244 431.46 225.883 430.063 226.856C428.134 228.197 426.579 230.007 425.544 232.116C424.399 234.415 423.81 236.951 423.824 239.52C423.504 246.066 427.617 252.241 432.965 253.96C434.574 254.465 436.277 254.595 437.944 254.34C439.61 254.085 441.197 253.453 442.582 252.49C444.601 251.066 446.223 249.15 447.297 246.925C449.02 243.418 449.47 239.421 448.569 235.618Z" fill="#F3ECD5"/>
</g>
<path d="M342.216 238.798C341.048 236.995 338.374 236.534 336.392 236.134C334.947 235.843 331.794 235.804 332.16 238.079C332.428 239.734 334.831 240.391 336.16 240.846C337.983 241.475 339.639 242.313 341.516 241.469C341.738 241.34 341.932 241.169 342.087 240.964C342.242 240.76 342.355 240.527 342.42 240.279C342.485 240.031 342.501 239.772 342.465 239.518C342.43 239.264 342.346 239.02 342.216 238.798Z" fill="#83684D"/>
<path d="M347.572 220.426C346.435 219.424 345.01 218.81 343.501 218.673C342.045 218.233 340.477 218.362 339.112 219.032C338.911 219.158 338.739 219.327 338.611 219.527C338.482 219.727 338.4 219.953 338.37 220.189C338.34 220.425 338.363 220.664 338.437 220.89C338.511 221.116 338.634 221.323 338.798 221.495C339.758 222.391 340.967 222.974 342.266 223.166C343.695 223.686 345.232 223.839 346.736 223.611C347.055 223.518 347.344 223.345 347.576 223.107C347.808 222.87 347.974 222.576 348.058 222.255C348.142 221.934 348.141 221.597 348.056 221.276C347.971 220.956 347.804 220.663 347.572 220.426Z" fill="#83684D"/>
<g style="mix-blend-mode:multiply" opacity="0.3">
<path d="M417.885 137.736C415.678 137.51 400.581 137.841 393.102 141.251C390.065 142.635 388.299 148.273 391.349 147.727C400.361 145.848 409.164 143.076 417.626 139.452C419.632 138.554 419.711 137.925 417.885 137.736Z" fill="#CE7953"/>
</g>
<g style="mix-blend-mode:multiply" opacity="0.3">
<path d="M398.649 134.199C401.223 133.606 403.827 133.148 406.45 132.828C406.761 129.097 406.818 125.348 406.62 121.609C406.282 115.091 405.38 108.616 403.925 102.254C401.418 90.6338 396.829 79.0034 388.631 70.2078C384.03 65.3104 378.095 61.8675 371.56 60.3041C375.85 62.0309 379.718 64.6601 382.902 68.0135C388.243 73.8793 392.429 80.7001 395.241 88.1182C397.986 95.0796 399.778 102.38 400.57 109.82C401.158 115.319 401.055 120.87 400.263 126.344C399.87 129.003 399.249 131.599 398.649 134.199Z" fill="#60233F"/>
</g>
<g style="mix-blend-mode:overlay" opacity="0.5">
<path d="M368.813 64.4297C356.926 60.1817 339.321 64.559 330.781 73.7011C330.691 73.7958 330.639 73.9194 330.632 74.0497C330.626 74.1799 330.666 74.3081 330.746 74.4112C330.826 74.5143 330.94 74.5855 331.067 74.6119C331.195 74.6384 331.328 74.6183 331.442 74.5553C337.008 71.1944 343.047 68.6881 349.357 67.1204C355.871 65.5915 361.943 66.2936 368.482 66.9203C369.986 67.0633 370.076 64.8791 368.813 64.4297Z" fill="#F3ECD5"/>
</g>
<path d="M362.474 111.002C359.206 109.642 356.483 111.778 354.625 114.316C354.168 114.941 355.112 115.522 355.629 115.089C357.378 113.614 359.695 112.04 361.918 113.444C363.935 114.728 364.908 116.911 365.172 119.782C365.287 121.02 366.826 120.131 366.855 119.015C366.957 114.958 365.467 112.243 362.474 111.002Z" fill="#A27259"/>
<path d="M336.453 101.121C333.285 100.188 330.683 102.637 329.061 104.906C328.651 105.479 329.579 106.431 330.034 105.88C330.646 104.998 331.473 104.287 332.436 103.814C333.4 103.341 334.468 103.121 335.54 103.177C337.992 103.521 338.955 106.367 338.895 109.082C338.87 110.269 340.86 110.047 341.001 108.802C341.262 107.191 340.95 105.541 340.119 104.137C339.287 102.733 337.99 101.666 336.453 101.121Z" fill="#A27259"/>
<path d="M344.679 143.148C340.722 143.94 336.88 144.729 332.885 144.323C334.294 141.358 336.722 136.738 338.39 133.584C338.664 133.068 338.156 132.358 337.624 132.237C331.645 130.864 325.836 126.356 324.441 120.313C327.116 123.236 337.331 125.425 341.105 121.772C341.461 121.431 341.473 120.608 341.038 120.802C335.998 123.007 327.967 121.334 323.975 117.618C323.322 117.008 322.539 117.159 322.493 118.127C322.128 125.542 328.606 131.886 335.755 134C333.946 137.591 332.098 141.105 330.086 144.592C330.003 144.734 329.955 144.893 329.943 145.057C329.931 145.22 329.957 145.384 330.019 145.536C330.081 145.688 330.176 145.824 330.298 145.933C330.42 146.043 330.566 146.123 330.724 146.167C335.572 146.991 340.547 146.649 345.238 145.171C345.498 145.089 345.715 144.91 345.845 144.671C345.975 144.432 346.007 144.152 345.935 143.89C345.862 143.627 345.691 143.404 345.456 143.265C345.222 143.127 344.943 143.085 344.679 143.148Z" fill="#DAA47D"/>
<g style="mix-blend-mode:overlay" opacity="0.3">
<path d="M281.954 128.498C281.936 128.484 281.92 128.469 281.904 128.452H281.895C281.911 128.468 281.936 128.482 281.954 128.498Z" fill="#60233F"/>
</g>
<g style="mix-blend-mode:overlay" opacity="0.3">
<path d="M282.25 128.849C282.195 128.758 282.127 128.674 282.049 128.601C282.126 128.675 282.193 128.759 282.25 128.849Z" fill="#60233F"/>
</g>
<path opacity="0.1" d="M119.134 100.313C115.934 96.3844 108.909 93.7796 108.209 100.313C107.275 109.031 121.988 111.701 120.659 103.393C120.424 102.252 119.898 101.192 119.134 100.313Z" fill="#EE402D"/>
<path d="M381.487 151.179C373.843 161.53 361.387 167.491 348.839 171.184C339.571 173.908 324.717 176.728 318.814 166.366C311.856 154.169 314.713 135.983 317.219 122.919C319.273 112.244 323.001 101.96 328.266 92.4496C320.851 101.46 314.701 111.243 312.005 122.744C311.956 122.94 311.965 123.147 312.031 123.338C312.098 123.529 312.219 123.697 312.379 123.82C312.54 123.944 312.733 124.017 312.935 124.033C313.136 124.048 313.338 124.004 313.515 123.906C314.645 123.298 315.735 122.62 316.778 121.874C310.927 134.709 307.998 149.794 309.419 163.75C310.235 171.771 312.854 179.541 314.491 187.416C315.498 192.3 314.968 197.798 315.078 202.755C315.156 206.518 313.841 216.011 316.675 218.704C317.713 219.085 318.183 211.299 325.492 203.649C332.138 196.691 337.543 191.575 347.028 189.967C357.022 188.271 371.113 186.691 378.471 178.416C378.349 180.385 378.378 182.36 378.556 184.325C378.603 184.494 378.688 184.65 378.805 184.781C378.921 184.912 379.067 185.015 379.229 185.081C379.391 185.147 379.567 185.175 379.742 185.164C379.917 185.152 380.087 185.1 380.239 185.012C387.119 180.93 395.462 172.116 398.841 164.527C400.506 161.133 401.963 157.642 403.205 154.072C397.51 155.31 390.042 155.353 388.559 154.126C385.518 151.605 386.686 148.546 387.463 145.343C389.082 138.668 393.647 133.148 396.309 126.923C388.779 127.054 392.014 120.949 390.864 126.557C389.159 134.832 383.508 148.438 381.487 151.179Z" fill="#A87C4F"/>
<path d="M353 192.093C347.789 189.231 348.54 188.701 342.763 187.154C331.705 184.186 309.935 169.271 302.053 157.651C298.42 152.301 289.099 135.809 285.052 122.666C282.064 112.949 276.236 118.088 277.973 128.124C279.528 137.16 284.145 149.936 289.032 157.538C299.813 174.304 315.465 188.933 334.103 196.409C340.34 198.916 345.388 200.455 352.171 199.28C355.641 198.676 355.748 193.598 353 192.093Z" fill="#FFC590"/>
<g style="mix-blend-mode:multiply" opacity="0.2">
<path d="M302.053 157.651C298.601 152.555 289.986 137.369 285.677 124.586C288.115 138.111 293.76 149.147 301.645 161.032C306.434 168.235 315.627 175.284 321.96 181.092C324.915 183.797 328.297 186.463 329.784 190.323C330.308 191.756 330.517 193.286 330.398 194.807C331.62 195.373 332.855 195.911 334.103 196.409C337.444 197.88 340.962 198.912 344.569 199.48C345.607 195.721 345.88 191.792 345.372 187.926C344.667 187.687 343.826 187.441 342.763 187.154C331.705 184.186 309.935 169.271 302.053 157.651Z" fill="#7A543A"/>
</g>
<path d="M343.667 184.916C343.333 184.888 342.998 184.951 342.698 185.099C342.398 185.247 342.143 185.473 341.962 185.754C341.628 185.909 341.369 186.189 341.241 186.534C339.616 190.904 338.388 195.41 337.571 200C337.484 200.358 337.515 200.736 337.66 201.075C337.805 201.414 338.056 201.697 338.376 201.882C343.743 204.509 354.504 206.373 358.08 200.087C362.683 191.996 349.836 185.504 343.667 184.916Z" fill="#314B22"/>
</g>
<defs>
<filter id="filter0_d_3_9594" x="0" y="9.53674e-07" width="470.258" height="363.371" filterUnits="userSpaceOnUse" color-interpolation-filters="sRGB">
<feFlood flood-opacity="0" result="BackgroundImageFix"/>
<feColorMatrix in="SourceAlpha" type="matrix" values="0 0 0 0 0 0 0 0 0 0 0 0 0 0 0 0 0 0 127 0" result="hardAlpha"/>
<feOffset dy="4"/>
<feGaussianBlur stdDeviation="2"/>
<feComposite in2="hardAlpha" operator="out"/>
<feColorMatrix type="matrix" values="0 0 0 0 0 0 0 0 0 0 0 0 0 0 0 0 0 0 0.25 0"/>
<feBlend mode="normal" in2="BackgroundImageFix" result="effect1_dropShadow_3_9594"/>
<feBlend mode="normal" in="SourceGraphic" in2="effect1_dropShadow_3_9594" result="shape"/>
</filter>
<linearGradient id="paint0_linear_3_9594" x1="279.795" y1="81.5614" x2="348.205" y2="81.5614" gradientUnits="userSpaceOnUse">
<stop stop-color="#FFD400"/>
<stop offset="1" stop-color="#FFC807"/>
</linearGradient>
<linearGradient id="paint1_linear_3_9594" x1="232.449" y1="79.7357" x2="262.26" y2="116.235" gradientUnits="userSpaceOnUse">
<stop offset="0.00889" stop-color="#D2A973"/>
<stop offset="0.19544" stop-color="#CEA670"/>
<stop offset="0.37597" stop-color="#C29C69"/>
<stop offset="0.5541" stop-color="#AF8B5C"/>
<stop offset="0.73082" stop-color="#94744A"/>
<stop offset="0.90496" stop-color="#715633"/>
<stop offset="0.91744" stop-color="#6E5431"/>
</linearGradient>
</defs>
</svg>
