<svg width="30" height="30" viewBox="0 0 110 111" fill="none" xmlns="http://www.w3.org/2000/svg">
<g clip-path="url(#clip0_3_7540)">
<path d="M60.1562 90.1875C60.6634 89.8734 61.0857 89.4376 61.3855 88.9189C61.6854 88.4003 61.8536 87.8149 61.875 87.2148C61.5909 85.4369 60.92 83.7447 59.9105 82.2597C59.467 83.677 58.8039 85.0146 57.9459 86.2227C57.9459 86.2227 57.9459 79.2852 55 77.3028C52.0541 79.2852 52.0541 86.2227 52.0541 86.2227C51.1961 85.0146 50.533 83.677 50.0895 82.2597C49.08 83.7447 48.4091 85.4369 48.125 87.2148C48.1464 87.8149 48.3146 88.4003 48.6145 88.9189C48.9143 89.4376 49.3366 89.8734 49.8438 90.1875C53.1908 91.3132 56.8092 91.3132 60.1562 90.1875Z" fill="#FF8548"/>
<path d="M108.281 71.3522V91.9219H68.75V81.2208C68.7185 77.8782 67.4727 74.6635 65.2488 72.1861C63.0249 69.7086 59.9776 68.1406 56.6844 67.7794C48.3312 66.8428 41.25 72.9825 41.25 80.6831V91.9219H1.71875V71.3522C1.80193 57.1758 7.46193 43.6133 17.4539 33.6476C27.4458 23.6819 40.9513 18.1293 55 18.2109C69.0487 18.1293 82.5542 23.6819 92.5462 33.6476C102.538 43.6133 108.198 57.1758 108.281 71.3522Z" fill="#7CC9D1"/>
<g opacity="0.1">
<path d="M57.5781 18.2751C56.7188 18.2352 55.8594 18.2109 55 18.2109C40.9513 18.1293 27.4458 23.6819 17.4539 33.6476C7.46193 43.6133 1.80193 57.1758 1.71875 71.3522V91.9219H6.875V71.3522C6.94989 57.6259 12.2582 44.4555 21.6987 34.573C31.1392 24.6904 43.9874 18.8543 57.5781 18.2751Z" fill="black"/>
</g>
<path d="M77.3438 81.5156V91.9219H68.75V81.2208C68.7185 77.8782 67.4727 74.6635 65.2488 72.1861C63.025 69.7086 59.9776 68.1406 56.6844 67.7794C48.3312 66.8428 41.25 72.9825 41.25 80.6831V91.9219H32.6562V81.5156C32.6562 75.5358 35.0103 69.8009 39.2006 65.5726C43.3908 61.3442 49.0741 58.9688 55 58.9688C60.9259 58.9688 66.6091 61.3442 70.7994 65.5726C74.9897 69.8009 77.3438 75.5358 77.3438 81.5156Z" fill="#5D979D"/>
<path d="M55 16.4766C40.5001 16.4105 26.5664 22.151 16.2555 32.4386C5.94462 42.7261 0.0986219 56.7207 0 71.3522L0 91.9219C0 92.3819 0.181082 92.823 0.50341 93.1483C0.825738 93.4735 1.26291 93.6562 1.71875 93.6562H41.25C41.7058 93.6562 42.143 93.4735 42.4653 93.1483C42.7877 92.823 42.9688 92.3819 42.9688 91.9219V80.6901C42.9744 79.1503 43.3061 77.6295 43.9416 76.2296C44.5771 74.8297 45.5018 73.5831 46.6537 72.5732C47.9877 71.3929 49.553 70.5095 51.2478 69.9802C52.9425 69.451 54.7288 69.2879 56.4902 69.5016C59.37 69.802 62.0385 71.1648 63.9839 73.3285C65.9292 75.4922 67.0144 78.3045 67.0312 81.226V91.9219C67.0312 92.3819 67.2123 92.823 67.5347 93.1483C67.857 93.4735 68.2942 93.6562 68.75 93.6562H108.281C108.737 93.6562 109.174 93.4735 109.497 93.1483C109.819 92.823 110 92.3819 110 91.9219V71.3522C109.901 56.7207 104.055 42.7261 93.7445 32.4386C83.4336 22.151 69.4999 16.4105 55 16.4766ZM31.0252 79.7812C30.9839 80.3571 30.9375 80.9294 30.9375 81.5156V90.1875H10.3125V79.7812H31.0252ZM31.5081 76.3125H18.9062V62.4375H40.1637C35.7723 65.9105 32.7127 70.8151 31.5081 76.3125ZM4.95859 58.9687C6.01252 54.7331 7.60407 50.6525 9.69375 46.8281H22.3438V58.9687H4.95859ZM46.1209 58.9687H25.7812V46.8281H58.4375V57.5119C54.2771 56.8586 50.0189 57.3623 46.1209 58.9687ZM56.7188 29.4844V19.9887C66.8185 20.309 76.6036 23.6104 84.8633 29.4844H56.7188ZM53.2812 29.4844H25.1367C33.3964 23.6104 43.1815 20.309 53.2812 19.9887V29.4844ZM70.4688 32.9531V43.3594H37.8125V32.9531H70.4688ZM61.875 46.8281H94.5312V58.9687H63.8791C63.2242 58.7051 62.5573 58.4623 61.875 58.2577V46.8281ZM105.041 58.9687H97.9688V46.8281H100.306C102.396 50.6525 103.987 54.7331 105.041 58.9687ZM84.2188 62.4375V76.3125H78.4919C77.2873 70.8151 74.2277 65.9105 69.8363 62.4375H84.2188ZM78.9748 79.7812H99.6875V90.1875H79.0625V81.5156C79.0625 80.9294 79.0161 80.3571 78.9748 79.7812ZM87.6562 76.3125V62.4375H105.77C106.293 65.3798 106.558 68.3629 106.562 71.3522V76.3125H87.6562ZM98.2145 43.3594H73.9062V32.9531H89.2323C92.6714 36.0036 95.6921 39.5032 98.2145 43.3594ZM20.7677 32.9531H34.375V43.3594H11.7855C14.3079 39.5032 17.3286 36.0036 20.7677 32.9531ZM4.22984 62.4375H15.4688V76.3125H3.4375V71.3522C3.44154 68.3629 3.70668 65.3798 4.22984 62.4375ZM3.4375 79.7812H6.875V90.1875H3.4375V79.7812ZM56.87 66.0537C54.628 65.7854 52.355 65.9972 50.1996 66.6753C48.0442 67.3534 46.0547 68.4825 44.3609 69.989C42.847 71.3226 41.633 72.9673 40.8 74.8128C39.9671 76.6583 39.5345 78.6621 39.5312 80.6901V90.1875H34.375V81.5156C34.375 75.9958 36.548 70.7021 40.4159 66.799C44.2839 62.8959 49.5299 60.7031 55 60.7031C60.4701 60.7031 65.7161 62.8959 69.5841 66.799C73.452 70.7021 75.625 75.9958 75.625 81.5156V90.1875H70.4688V81.226C70.4528 77.4506 69.056 73.8142 66.5463 71.0141C64.0367 68.2141 60.5909 66.4477 56.87 66.0537ZM103.125 90.1875V79.7812H106.562V90.1875H103.125Z" fill="black"/>
<path d="M59.6836 80.5409C59.4243 80.5754 59.1762 80.6691 58.9583 80.8149C58.5647 78.8584 57.5011 77.1041 55.9539 75.8598C55.6715 75.6697 55.3395 75.5682 55 75.5682C54.6605 75.5682 54.3285 75.6697 54.0461 75.8598C52.4995 77.1067 51.4376 78.8635 51.0469 80.8219C50.6679 80.5676 50.2045 80.4754 49.7582 80.5655C49.312 80.6555 48.9193 80.9205 48.6664 81.3023C47.4437 83.0561 46.6674 85.0866 46.4062 87.2148C46.4247 88.1205 46.671 89.0066 47.122 89.79C47.5729 90.5733 48.2138 91.2281 48.9844 91.6929C49.0827 91.7499 49.1863 91.797 49.2938 91.8334C52.9948 93.0683 56.9914 93.0683 60.6925 91.8334C60.8 91.797 60.9036 91.7499 61.0019 91.6929C61.775 91.2298 62.4186 90.5757 62.872 89.7923C63.3255 89.0088 63.5739 88.1218 63.5938 87.2148C63.3354 85.0855 62.5616 83.0531 61.3405 81.2971C61.163 81.0263 60.9133 80.8116 60.6201 80.6778C60.327 80.544 60.0023 80.4965 59.6836 80.5409ZM59.3966 88.6127C56.5344 89.5197 53.4656 89.5197 50.6034 88.6127C50.3806 88.4525 50.1965 88.2436 50.0649 88.0015C49.9334 87.7594 49.8578 87.4905 49.8438 87.2148C49.8557 86.9137 49.9101 86.6158 50.0053 86.3302C50.2387 86.7358 50.5191 87.112 50.8406 87.4506C51.0812 87.6926 51.3874 87.8573 51.7206 87.9238C52.0539 87.9903 52.3991 87.9556 52.7129 87.8242C53.0266 87.6929 53.2947 87.4706 53.4834 87.1856C53.672 86.9005 53.7727 86.5655 53.7728 86.2227C53.7682 84.0721 54.1853 81.9419 55 79.9547C55.8293 81.9412 56.2481 84.0776 56.2306 86.2331C56.231 86.5757 56.332 86.9105 56.5208 87.1953C56.7096 87.4801 56.9777 87.7021 57.2914 87.8332C57.605 87.9644 57.9502 87.9989 58.2832 87.9324C58.6163 87.8658 58.9224 87.7012 59.1628 87.4593C59.4843 87.1212 59.7647 86.7457 59.9981 86.3406C60.0931 86.6257 60.1475 86.9229 60.1597 87.2234C60.144 87.498 60.0672 87.7654 59.9351 88.0059C59.803 88.2464 59.6189 88.4538 59.3966 88.6127Z" fill="black"/>
</g>
<defs>
<clipPath id="clip0_3_7540">
<rect width="110" height="111" fill="white"/>
</clipPath>
</defs>
</svg>
