<svg width="30" height="30" viewBox="0 0 64 64" fill="none" xmlns="http://www.w3.org/2000/svg">
<path fill-rule="evenodd" clip-rule="evenodd" d="M59 56L61 61H32C39.59 61 44.11 56.21 45.95 50.64L47 51C53 51 57 52 59 56ZM50.98 21V23C50.98 24.09 50.09 24.99 49 25H48.98H15H14.98C13.88 25 12.98 24.1 12.98 23V21C12.98 19.9 13.88 19 14.98 19H48.98C50.08 19 50.98 19.9 50.98 21ZM32 61H3L5 56C7 52 11 51 17 51L18.02 50.66C19.87 56.23 24.4 61 32 61ZM54 9C55.66 9 57 10.34 57 12C57 13.66 55.66 15 54 15C52.34 15 51 13.66 51 12C51 11.65 51.06 11.31 51.18 11C51.58 9.83 52.69 9 54 9Z" fill="#FF5959"/>
<path fill-rule="evenodd" clip-rule="evenodd" d="M38 42L37.99 42.01L37.98 42C37 41 35.98 40 31.98 40C27.98 40 26.96 41 25.98 42C19 41.99 18 39 18 39C17 36 17 35 17 35C15.9 35 15 34.1 15 33V25H48.98H49V33C49 34.1 48.1 35 47 35C47 35 47 36 46 39C46 39 45 42 38 42Z" fill="#FFCC99"/>
<path fill-rule="evenodd" clip-rule="evenodd" d="M37.9902 42.0098L38.0002 41.9998C45.0002 41.9998 46.0002 38.9998 46.0002 38.9998C47.2402 42.3198 47.2702 46.6798 45.9502 50.6398C44.1102 56.2098 39.5902 60.9998 32.0002 60.9998C24.4002 60.9998 19.8702 56.2298 18.0202 50.6598C16.7002 46.6998 16.7402 42.3298 18.0002 38.9998C18.0002 38.9998 19.0002 41.9898 25.9802 41.9998C26.9602 40.9998 27.9802 39.9998 31.9802 39.9998C35.9802 39.9998 37.0002 40.9998 37.9802 41.9998L37.9902 42.0098Z" fill="white"/>
<path fill-rule="evenodd" clip-rule="evenodd" d="M46.4902 12.3701C48.5802 15.7601 48.9802 19.0001 48.9802 19.0001H14.9802C14.9802 11.0001 21.0002 3.00012 35.0002 3.00012C49.0002 3.00012 54.0002 9.00012 54.0002 9.00012C52.6902 9.00012 51.5802 9.83012 51.1802 11.0001H51.1702L46.5602 12.3301L46.4902 12.3701Z" fill="#CCEEFF"/>
<path d="M61 61L59 56C57 52 53 51 47 51M44.979 19H14.979C13.875 19 12.979 19.896 12.979 21V23C12.979 24.104 13.875 25 14.979 25H48.979C50.084 25 50.979 24.104 50.979 23V21C50.979 19.896 50.084 19 48.979 19C48.979 19 48 11 41 7M54 9C54 9 49 3 35 3C21 3 14.979 11 14.979 19M46 39L41.979 42M21.979 42L18 39M28.979 44C28.979 44 29.979 45 32 45C33.979 45 34.979 44 34.979 44M42.979 45C39.979 46 38.959 43 37.979 42C37 41 35.979 40 31.979 40C27.979 40 26.959 41 25.979 42C25 43 23.979 46 21.979 45M15 29V33C15 34.104 15.896 35 17 35C17 35 17 36 18 39C14.979 47 18.979 61 32 61C44.979 61 48.979 47 46 39C47 36 47 35 47 35C48.104 35 49 34.104 49 33V29M3 61L5 56C7 52 11 51 17 51M46.562 12.333L48 12L46.562 12.333ZM54 9C52.344 9 51 10.343 51 12C51 13.657 52.344 15 54 15C55.656 15 57 13.657 57 12C57 10.343 55.656 9 54 9ZM26 31V30V31ZM24 30H28H24ZM38 31V30V31ZM36 30H40H36Z" stroke="#12131A" stroke-linecap="round" stroke-linejoin="round"/>
</svg>
